<?xml version="1.0" encoding="UTF-8"?>
<svg width="60px" height="55px" viewBox="0 0 60 55" version="1.1" xmlns="http://www.w3.org/2000/svg" xmlns:xlink="http://www.w3.org/1999/xlink">
    <!-- Generator: Sketch 54.1 (76490) - https://sketchapp.com -->
    <title>Group 15</title>
    <desc>Created with Sketch.</desc>
    <defs>
        <path d="M10,0 L34,0 C39.5228475,-1.01453063e-15 44,4.4771525 44,10 L44,39 L10,39 C4.4771525,39 6.76353751e-16,34.5228475 0,29 L0,10 C-6.76353751e-16,4.4771525 4.4771525,1.01453063e-15 10,0 Z" id="path-1"></path>
        <filter x="-29.5%" y="-28.2%" width="159.1%" height="166.7%" filterUnits="objectBoundingBox" id="filter-2">
            <feMorphology radius="1" operator="dilate" in="SourceAlpha" result="shadowSpreadOuter1"></feMorphology>
            <feOffset dx="0" dy="2" in="shadowSpreadOuter1" result="shadowOffsetOuter1"></feOffset>
            <feGaussianBlur stdDeviation="3" in="shadowOffsetOuter1" result="shadowBlurOuter1"></feGaussianBlur>
            <feColorMatrix values="0 0 0 0 0.901960784   0 0 0 0 0.207843137   0 0 0 0 0.156862745  0 0 0 0.395487325 0" type="matrix" in="shadowBlurOuter1"></feColorMatrix>
        </filter>
        <polygon id="path-3" points="0 9.50118765e-06 19.9934129 9.50118765e-06 19.9934129 19.9940618 0 19.9940618"></polygon>
    </defs>
    <g id="Page-1" stroke="none" stroke-width="1" fill="none" fill-rule="evenodd">
        <g id="versión-3" transform="translate(-1353.000000, -579.000000)">
            <g id="Group-15" transform="translate(1361.000000, 585.000000)">
                <g id="Rectangle-Copy" transform="translate(22.000000, 19.500000) scale(-1, 1) translate(-22.000000, -19.500000) ">
                    <use fill="black" fill-opacity="1" filter="url(#filter-2)" xlink:href="#path-1"></use>
                    <use fill="#25D366" fill-rule="evenodd" xlink:href="#path-1"></use>
                </g>
                <g id="Group-3" transform="translate(12.000000, 10.000000)">
                    <mask id="mask-4" fill="white">
                        <use xlink:href="#path-3"></use>
                    </mask>
                    <g id="Clip-2"></g>
                    <path d="M14.5770406,11.9815297 C14.3283055,11.8576817 13.1054415,11.2588219 12.8774224,11.1761615 C12.6494033,11.0935487 12.48358,11.052266 12.3177566,11.3000095 C12.1519332,11.547848 11.6752745,12.1054727 11.5301193,12.2707458 C11.3850597,12.4358765 11.2399523,12.4566366 10.9912649,12.3326936 C10.7424821,12.2087506 9.94100239,11.9473729 8.99093079,11.103905 C8.25145585,10.4475154 7.7522673,9.63687411 7.6071599,9.38898812 C7.46210024,9.14119715 7.59174224,9.0072304 7.71627685,8.88376247 C7.82816229,8.7728361 7.96501193,8.59459382 8.08935561,8.45008076 C8.21374702,8.30552019 8.255179,8.20219477 8.33809069,8.03711164 C8.42100239,7.87183848 8.37957041,7.72727791 8.3173747,7.60338242 C8.255179,7.47948694 7.75770883,6.26091211 7.55045346,5.76518765 C7.34854415,5.28257482 7.14348449,5.34794299 6.99078759,5.34024703 C6.84587112,5.33307363 6.6798568,5.33155344 6.51408115,5.33155344 C6.34825776,5.33155344 6.07875895,5.39350119 5.85078759,5.64129216 C5.6227685,5.88917815 4.98019093,6.48808551 4.98019093,7.70656532 C4.98019093,8.92509264 5.87150358,10.1021948 5.99589499,10.2674204 C6.12023866,10.4326936 7.74983294,12.9331211 10.2450597,14.0054727 C10.8385203,14.2605321 11.3018616,14.4128836 11.6630549,14.5268979 C12.2589499,14.7154014 12.8011933,14.6887981 13.2297375,14.6250451 C13.7076372,14.5539762 14.7013842,14.0261853 14.9086874,13.447943 C15.1159427,12.8696057 15.1159427,12.3739762 15.053747,12.2707458 C14.991599,12.1674679 14.8257757,12.1054727 14.5770406,11.9815297 M10.0385203,18.1489881 L10.035179,18.1489881 C8.55050119,18.1484181 7.09427208,17.7514584 5.82386635,17.0011496 L5.52176611,16.8226698 L2.39016706,17.640247 L3.22601432,14.6014822 L3.02930788,14.2899382 C2.20105012,12.9788219 1.76362768,11.4635249 1.76424821,9.90751544 C1.76606205,5.3671829 5.47785203,1.67331116 10.0418138,1.67331116 C12.2518377,1.67407126 14.3293079,2.53179097 15.8915036,4.08832304 C17.4536516,5.6448076 18.3134606,7.71383373 18.3126492,9.91411876 C18.3107876,14.4548314 14.5989976,18.1489881 10.0385203,18.1489881 M17.0804296,2.9055677 C15.2009547,1.0328361 12.7014797,0.00105463183 10.0384248,9.50118765e-06 C4.55140811,9.50118765e-06 0.0856324582,4.44423753 0.0834367542,9.90685036 C0.0827207637,11.6530736 0.541097852,13.3574917 1.4122673,14.860057 L0,19.9940713 L5.2772315,18.616304 C6.73126492,19.4056152 8.36835322,19.8216722 10.034463,19.8222423 L10.0385203,19.8222423 L10.038568,19.8222423 C15.5250119,19.8222423 19.9912172,15.3775392 19.9934129,9.91478385 C19.9944153,7.26751544 18.9599045,4.77825178 17.0804296,2.9055677" id="Fill-1" fill="#FFFFFF" mask="url(#mask-4)"></path>
                </g>
            </g>
        </g>
    </g>
</svg>