<?xml version="1.0" encoding="UTF-8"?>
<svg width="94px" height="78px" viewBox="0 0 94 78" version="1.1" xmlns="http://www.w3.org/2000/svg" xmlns:xlink="http://www.w3.org/1999/xlink">
    <!-- Generator: Sketch 57.1 (83088) - https://sketch.com -->
    <title>empresas</title>
    <desc>Created with Sketch.</desc>
    <g id="Page-1" stroke="none" stroke-width="1" fill="none" fill-rule="evenodd">
        <g id="versión-5" transform="translate(-1068.000000, -3272.000000)" fill="#4A4A4A">
            <g id="empresas" transform="translate(1068.000000, 3272.000000)">
                <polygon id="Fill-1" points="50 54 55 54 55 49 50 49"></polygon>
                <polygon id="Fill-2" points="40 23 45 23 45 18 40 18"></polygon>
                <polygon id="Fill-3" points="50 33 55 33 55 28 50 28"></polygon>
                <polygon id="Fill-4" points="50 23 55 23 55 18 50 18"></polygon>
                <polygon id="Fill-5" points="50 44 55 44 55 39 50 39"></polygon>
                <polygon id="Fill-6" points="40 33 45 33 45 28 40 28"></polygon>
                <polygon id="Fill-7" points="40 54 45 54 45 49 40 49"></polygon>
                <polygon id="Fill-8" points="40 44 45 44 45 39 40 39"></polygon>
                <path d="M31,78 L64,78 C65.1045695,78 66,77.1045695 66,76 L66,10 C66,8.8954305 65.1045695,8 64,8 L31,8 C29.8954305,8 29,8.8954305 29,10 L29,76 C29,77.1045695 29.8954305,78 31,78 Z M34,13 L61,13 L61,73 L55,73 L55,59 L40,59 L40,73 L34,73 L34,13 Z M45,73 L50,73 L50,64 L45,64 L45,73 Z" id="Fill-9"></path>
                <path d="M69.0003,28.9997 L69.0003,29.9997 C69.0003,31.1042695 69.8957305,31.9997 71.0003,31.9997 L89.0003,31.9997 L89.0003,31.9997 L89.0003,40.0007 L78.0003,40.0007 L78.0003,44.9997 L89.0003,44.9997 L89.0003,49.9997 L78.0003,49.9997 L78.0003,54.9997 L89.0003,54.9997 L89.0003,59.9997 L78.0003,59.9997 L78.0003,65.0007 L89.0003,65.0007 L89.0003,72.9997 L71.0003,72.9997 C69.8957305,72.9997 69.0003,73.8951305 69.0003,74.9997 L69.0003,75.9997 C69.0003,77.1042695 69.8957305,77.9997 71.0003,77.9997 L91.9993,77.9997 C93.1038695,77.9997 93.9993,77.1042695 93.9993,75.9997 L93.9993,28.9997 C93.9993,27.8951305 93.1038695,26.9997 91.9993,26.9997 L71.0003,26.9997 C69.8957305,26.9997 69.0003,27.8951305 69.0003,28.9997 Z" id="Fill-10"></path>
                <path d="M0,28.9997 L0,75.9997 C1.3527075e-16,77.1042695 0.8954305,77.9997 2,77.9997 L23,77.9997 C24.1045695,77.9997 25,77.1042695 25,75.9997 L25,74.9997 C25,73.8951305 24.1045695,72.9997 23,72.9997 L5,72.9997 L5,72.9997 L5,65.0007 L17,65.0007 L17,59.9997 L5,59.9997 L5,54.9997 L17,54.9997 L17,49.9997 L5,49.9997 L5,44.9997 L17,44.9997 L17,40.0007 L5,40.0007 L5,31.9997 L24,31.9997 C25.1045695,31.9997 26,31.1042695 26,29.9997 L26,28.9997 C26,27.8951305 25.1045695,26.9997 24,26.9997 L2,26.9997 C0.8954305,26.9997 -1.3527075e-16,27.8951305 0,28.9997 Z" id="Fill-11"></path>
                <path d="M31,5 L64,5 C65.1045695,5 66,4.1045695 66,3 L66,2 C66,0.8954305 65.1045695,-2.02906125e-16 64,0 L31,0 C29.8954305,2.02906125e-16 29,0.8954305 29,2 L29,3 C29,4.1045695 29.8954305,5 31,5 Z" id="Fill-12"></path>
                <path d="M2,24 L24,24 C25.1045695,24 26,23.1045695 26,22 L26,21 C26,19.8954305 25.1045695,19 24,19 L2,19 C0.8954305,19 -1.3527075e-16,19.8954305 0,21 L0,22 C1.3527075e-16,23.1045695 0.8954305,24 2,24 Z" id="Fill-13"></path>
                <path d="M71,24 L91.999,24 C93.1035695,24 93.999,23.1045695 93.999,22 L93.999,21 C93.999,19.8954305 93.1035695,19 91.999,19 L71,19 C69.8954305,19 69,19.8954305 69,21 L69,22 C69,23.1045695 69.8954305,24 71,24 Z" id="Fill-14"></path>
            </g>
        </g>
    </g>
</svg>