<?xml version="1.0" encoding="UTF-8"?>
<svg width="77px" height="84px" viewBox="0 0 77 84" version="1.1" xmlns="http://www.w3.org/2000/svg" xmlns:xlink="http://www.w3.org/1999/xlink">
    <!-- Generator: Sketch 57.1 (83088) - https://sketch.com -->
    <title>ruta exportadora</title>
    <desc>Created with Sketch.</desc>
    <g id="Page-1" stroke="none" stroke-width="1" fill="none" fill-rule="evenodd">
        <g id="versión-5" transform="translate(-682.000000, -3522.000000)" fill="#4A4A4A">
            <path d="M684,3582.245 L756.788,3582.245 C757.892569,3582.245 758.788,3581.34957 758.788,3580.245 L758.788,3524 C758.788,3522.89543 757.892569,3522 756.788,3522 L684,3522 C682.895431,3522 682,3522.89543 682,3524 L682,3580.245 C682,3581.34957 682.895431,3582.245 684,3582.245 Z M687,3577.245 L753.787,3577.245 L753.787,3527.001 L687,3527.001 L687,3577.245 Z M694.013,3537.154 L694.013,3570.155 L694.013,3570.155 L745.013,3570.155 C746.117569,3570.155 747.013,3569.25957 747.013,3568.155 L747.013,3567.154 C747.013,3566.04943 746.117569,3565.154 745.013,3565.154 L700.598,3565.154 L700.598,3565.154 L710.46,3554.46 L723.178619,3559.4146 C723.870674,3559.6842 724.655132,3559.54809 725.215919,3559.06112 L741.928675,3544.54826 C742.762683,3543.82403 742.851677,3542.56083 742.12745,3541.72682 C742.126808,3541.72608 742.126165,3541.72535 742.125522,3541.72461 L741.474547,3540.97718 C740.748193,3540.14596 739.485889,3540.05832 738.651635,3540.78118 L723.298,3554.129 L723.298,3554.129 L710.612163,3549.1327 C709.834207,3548.82631 708.947754,3549.03618 708.389771,3549.65888 L699.014,3560.122 L699.014,3560.122 L699.014,3537.154 C699.014,3536.04943 698.118569,3535.154 697.014,3535.154 L696.013,3535.154 C694.908431,3535.154 694.013,3536.04943 694.013,3537.154 Z M718.014,3585.154 L718.014,3593.713 L703.436256,3600.45474 C702.436452,3600.91712 701.998748,3602.1009 702.457248,3603.10248 L702.86686,3603.99728 C703.326619,3605.00161 704.513504,3605.44308 705.517842,3604.98332 C705.521236,3604.98177 705.524625,3604.98021 705.528009,3604.97864 L720.423,3598.059 L720.423,3598.059 L735.814515,3605.01586 C736.817916,3605.4694 737.999168,3605.02654 738.457106,3604.02514 L738.878079,3603.10458 C739.337445,3602.10006 738.895511,3600.91335 737.890993,3600.45398 C737.889416,3600.45326 737.887839,3600.45254 737.88626,3600.45182 L723.013,3593.697 L723.013,3593.697 L723.013,3585.154 L718.014,3585.154 Z" id="ruta-exportadora"></path>
        </g>
    </g>
</svg>