<?xml version="1.0" encoding="UTF-8"?>
<svg width="19px" height="19px" viewBox="0 0 19 19" version="1.1" xmlns="http://www.w3.org/2000/svg" xmlns:xlink="http://www.w3.org/1999/xlink">
    <!-- Generator: Sketch 56.3 (81716) - https://sketch.com -->
    <title>Group</title>
    <desc>Created with Sketch.</desc>
    <g id="Page-1" stroke="none" stroke-width="1" fill="none" fill-rule="evenodd">
        <g id="Group" fill="#C2C9D4">
            <path d="M4.43333333,1.52886667 L4.43333333,4.43333333 L1.52886667,4.43333333 L4.43333333,1.52886667 Z M15.2,17.1 C15.2,17.4496 14.9162667,17.7333333 14.5666667,17.7333333 L1.9,17.7333333 C1.5504,17.7333333 1.26666667,17.4496 1.26666667,17.1 L1.26666667,5.7 L5.7,5.7 L5.7,1.26666667 L14.5666667,1.26666667 C14.9162667,1.26666667 15.2,1.5504 15.2,1.9 L15.2,2.53333333 L16.4666667,2.53333333 L16.4666667,1.9 C16.4666667,0.852466667 15.6142,-1.77635684e-15 14.5666667,-1.77635684e-15 L4.17113333,-1.77635684e-15 L0,4.17113333 L0,17.1 C0,18.1475333 0.852466667,19 1.9,19 L14.5666667,19 C15.6142,19 16.4666667,18.1475333 16.4666667,17.1 L16.4666667,10.7666667 L15.2,10.7666667 L15.2,17.1 Z" id="Fill-1"></path>
            <path d="M14.481199,7.49727333 L13.9194323,7.49030667 L13.8529323,8.06410667 C13.852299,8.07170667 13.736399,8.93240667 13.134099,9.34470667 C12.7452323,9.61197333 12.1999323,9.64680667 11.515299,9.44794 L10.912999,9.27504 L10.7432657,9.89254 C10.6197657,10.34284 10.4107657,10.64304 10.1048657,10.8096067 C9.61086566,11.0794067 8.97246566,10.9521067 8.73686566,10.8913067 C9.17259899,9.24527333 9.97503232,7.41747333 11.4513323,6.26544 C12.953599,5.09250667 14.956199,4.79547333 17.4097323,5.37434 C16.5135657,7.47004 14.5679657,7.49727333 14.481199,7.49727333 L14.481199,7.49727333 Z M18.3983657,4.30907333 C15.2475323,3.39770667 12.655299,3.71057333 10.694499,5.24197333 C6.98253232,8.14074 6.96543232,14.3056067 6.96666667,14.56654 L8.21753232,14.5614733 C8.21753232,14.5367733 8.22006566,13.5126733 8.46199899,12.14594 C8.89076566,12.25614 9.82873232,12.40814 10.6805657,11.9508733 C11.1422657,11.7026067 11.496299,11.3207067 11.7382323,10.8127733 C12.5514323,10.9426067 13.2512657,10.8096067 13.8288657,10.4137733 C14.505899,9.94954 14.8282657,9.23324 14.977099,8.74494 C16.2222323,8.56190667 18.1285657,7.65940667 18.830299,5.10200667 L19.0000323,4.48324 L18.3983657,4.30907333 Z" id="Fill-4"></path>
        </g>
    </g>
</svg>