<?xml version="1.0" encoding="UTF-8"?>
<svg width="42px" height="38px" viewBox="0 0 42 38" version="1.1" xmlns="http://www.w3.org/2000/svg" xmlns:xlink="http://www.w3.org/1999/xlink">
    <!-- Generator: sketchtool 56.3 (101010) - https://sketch.com -->
    <title>3FD8F73C-22F5-42FB-A3CA-5412957016D9</title>
    <desc>Created with sketchtool.</desc>
    <g id="Page-1" stroke="none" stroke-width="1" fill="none" fill-rule="evenodd">
        <g id="Usuario-V1" transform="translate(-845.000000, -224.000000)" fill="#43CB83">
            <path d="M850.789772,243.441092 C849.964255,243.441092 849.176393,243.786015 848.627497,244.386708 C848.119152,244.945015 847.861359,245.664092 847.900462,246.409477 C847.938117,247.157785 848.274117,247.849092 848.841841,248.351862 L860.084807,258.340015 C861.31729,259.437631 863.437566,259.200862 864.393428,257.882554 L883.572945,231.376092 C884.011772,230.769554 884.187014,230.031477 884.066807,229.296323 C883.943703,228.5524 883.529497,227.899092 882.90529,227.459169 C881.640945,226.567631 879.739359,226.884785 878.847221,228.119785 L863.433221,249.421708 C862.474462,250.7444 860.387497,250.975323 859.162255,249.887938 L852.734807,244.177708 C852.201841,243.702708 851.511014,243.441092 850.789772,243.441092 M862.026945,261.999708 C860.601841,261.999708 859.233221,261.480862 858.170186,260.533785 L846.927221,250.547092 C845.770048,249.518169 845.086462,248.1034 845.008255,246.5644 C844.927152,245.0254 845.455772,243.550708 846.495634,242.409246 C847.591979,241.207862 849.156117,240.518015 850.789772,240.518015 C852.214876,240.518015 853.586393,241.038323 854.649428,241.982477 L861.076876,247.692708 L876.508255,226.395169 C877.593014,224.897092 879.351221,223.999708 881.213703,223.999708 C882.418669,223.999708 883.57729,224.368015 884.562117,225.063708 C885.832255,225.956708 886.669359,227.289631 886.922807,228.816938 C887.173359,230.331092 886.814186,231.852554 885.91191,233.100708 L866.732393,259.607169 C865.647634,261.105246 863.887979,261.999708 862.026945,261.999708" id="Fill-1"></path>
        </g>
    </g>
</svg>