<?xml version="1.0" encoding="UTF-8"?>
<svg width="32px" height="38px" viewBox="0 0 32 38" version="1.1" xmlns="http://www.w3.org/2000/svg" xmlns:xlink="http://www.w3.org/1999/xlink">
    <!-- Generator: sketchtool 56.3 (101010) - https://sketch.com -->
    <title>68DBD9C9-4DB0-430C-9510-39B94EF2B9BE</title>
    <desc>Created with sketchtool.</desc>
    <g id="Page-1" stroke="none" stroke-width="1" fill="none" fill-rule="evenodd">
        <g id="Usuario-V1" transform="translate(-480.000000, -225.000000)" fill="#F5A623">
            <g id="Group-4" transform="translate(412.000000, 215.000000)">
                <path d="M97.7142857,44.6470588 C97.7142857,45.2628824 97.2022857,45.7647059 96.5714286,45.7647059 L73.7142857,45.7647059 C73.0834286,45.7647059 72.5714286,45.2628824 72.5714286,44.6470588 L72.5714286,42.4117647 L74.8571429,42.4117647 L74.8571429,40.1764706 L72.5714286,40.1764706 L72.5714286,34.5882353 L74.8571429,34.5882353 L74.8571429,32.3529412 L72.5714286,32.3529412 L72.5714286,25.6470588 L74.8571429,25.6470588 L74.8571429,23.4117647 L72.5714286,23.4117647 L72.5714286,17.8235294 L74.8571429,17.8235294 L74.8571429,15.5882353 L72.5714286,15.5882353 L72.5714286,13.3529412 C72.5714286,12.7371176 73.0834286,12.2352941 73.7142857,12.2352941 L92,12.2352941 L92,40.1764706 L94.2857143,40.1764706 L94.2857143,12.2352941 L96.5714286,12.2352941 C97.2022857,12.2352941 97.7142857,12.7371176 97.7142857,13.3529412 L97.7142857,44.6470588 Z M96.5714286,10 L73.7142857,10 C71.824,10 70.2857143,11.5043529 70.2857143,13.3529412 L70.2857143,15.5882353 L68,15.5882353 L68,17.8235294 L70.2857143,17.8235294 L70.2857143,23.4117647 L68,23.4117647 L68,25.6470588 L70.2857143,25.6470588 L70.2857143,32.3529412 L68,32.3529412 L68,34.5882353 L70.2857143,34.5882353 L70.2857143,40.1764706 L68,40.1764706 L68,42.4117647 L70.2857143,42.4117647 L70.2857143,44.6470588 C70.2857143,46.4956471 71.824,48 73.7142857,48 L96.5714286,48 C98.4617143,48 100,46.4956471 100,44.6470588 L100,13.3529412 C100,11.5043529 98.4617143,10 96.5714286,10 L96.5714286,10 Z" id="Fill-1"></path>
            </g>
        </g>
    </g>
</svg>