<?xml version="1.0" encoding="UTF-8"?>
<svg width="19px" height="19px" viewBox="0 0 19 19" version="1.1" xmlns="http://www.w3.org/2000/svg" xmlns:xlink="http://www.w3.org/1999/xlink">
    <!-- Generator: Sketch 56.3 (81716) - https://sketch.com -->
    <title>Fill 1 Copy 4</title>
    <desc>Created with Sketch.</desc>
    <g id="Page-1" stroke="none" stroke-width="1" fill="none" fill-rule="evenodd">
        <path d="M14.8432861,19 L16.030749,19 L16.030749,0 L14.8432861,0 L14.8432861,19 Z M8.90597169,19 L10.0934346,19 L10.0934346,0 L8.90597169,0 L8.90597169,19 Z M11.8746289,19 L13.0620918,19 L13.0620918,2.52941176 L11.8746289,2.52941176 L11.8746289,19 Z M17.8119434,19 L19,19 L19,5.47058824 L17.8119434,5.47058824 L17.8119434,19 Z M2.96865723,19 L4.15612012,19 L4.15612012,6.05882353 L2.96865723,6.05882353 L2.96865723,19 Z M5.93731446,19 L7.12477735,19 L7.12477735,11.3529412 L5.93731446,11.3529412 L5.93731446,19 Z M0,19 L1.18746289,19 L1.18746289,14.2941176 L0,14.2941176 L0,19 Z" id="Fill-1-Copy-4" fill="#E63528"></path>
    </g>
</svg>