<?xml version="1.0" encoding="UTF-8"?>
<svg width="19px" height="19px" viewBox="0 0 19 19" version="1.1" xmlns="http://www.w3.org/2000/svg" xmlns:xlink="http://www.w3.org/1999/xlink">
    <!-- Generator: Sketch 56.3 (81716) - https://sketch.com -->
    <title>Fill 1 Copy</title>
    <desc>Created with Sketch.</desc>
    <g id="Page-1" stroke="none" stroke-width="1" fill="none" fill-rule="evenodd">
        <path d="M17.5176886,8.11236667 L13.6627984,12.6666667 L2.21872695,12.6666667 C1.82448378,12.6666667 1.48900977,12.4412 1.32249712,12.0631 C1.22577286,11.8452333 1.20985621,11.6178667 1.25760616,11.4 L5.77487389,11.4 L5.77487389,10.1333333 L2.10547387,10.1333333 L3.09475489,8.86666667 L14.2174324,8.86666667 L16.3618949,6.33333333 L16.7806252,6.33333333 C17.1724197,6.33333333 17.5060572,6.56576667 17.6756307,6.954 C17.8109222,7.2675 17.8415312,7.7349 17.5176886,8.11236667 L17.5176886,8.11236667 Z M16.7806252,11.4 C17.1724197,11.4 17.5060572,11.6324333 17.6756307,12.0206667 C17.8109222,12.3341667 17.8415312,12.8015667 17.5176886,13.1790333 L13.6627984,17.7333333 L2.21872695,17.7333333 C1.83121774,17.7333333 1.49819245,17.5040667 1.32800673,17.1196333 C1.24842348,16.9391333 1.21352928,16.7060667 1.25332091,16.4666667 L10.6723047,16.4666667 L10.6723047,15.2 L2.07425275,15.2 L3.07394081,13.9333333 L14.2174324,13.9333333 L16.3618949,11.4 L16.7806252,11.4 Z M1.47615401,7.13386667 C1.32494584,6.8913 1.26923756,6.60186667 1.31392662,6.33333333 L8.83576813,6.33333333 L8.83576813,5.06666667 L2.19179109,5.06666667 L5.40756658,1.26666667 L16.7806252,1.26666667 C17.1724197,1.26666667 17.5060572,1.4991 17.6756307,1.88733333 C17.8109222,2.20083333 17.8415312,2.66823333 17.5176886,3.0457 L13.6627984,7.6 L2.2897397,7.6 C1.83611517,7.6 1.58573402,7.3074 1.47615401,7.13386667 L1.47615401,7.13386667 Z M18.7922449,6.4353 C18.5100305,5.7855 17.9878419,5.32823333 17.3634195,5.15026667 L18.4353447,3.8836 C19.0291581,3.19263333 19.165674,2.22933333 18.7922449,1.36863333 C18.4255498,0.5244 17.6554288,0 16.7806252,0 L4.85293254,0 L0.635632451,4.98306667 C0.48197556,5.16103333 0.357703254,5.3599 0.265264248,5.57333333 C-0.0438860709,6.28646667 0.0271266756,7.14843333 0.448917903,7.8223 C0.734193246,8.2783 1.14557743,8.588 1.61573079,8.7457 L0.541969088,10.1206667 C-0.0328668516,10.8103667 -0.160200052,11.7572 0.209555973,12.5913 C0.48197556,13.2062667 0.977228249,13.6477 1.57226609,13.8339 L0.541969088,15.1398333 C-0.0371521035,15.8346 -0.162036589,16.7953667 0.215065582,17.6472 C0.584821607,18.4819333 1.35249388,19 2.21872695,19 L14.2174324,19 L18.4353447,14.0169333 C19.0291581,13.3259667 19.165674,12.3626667 18.7922449,11.5019667 C18.5100305,10.8521667 17.9878419,10.3949 17.3634195,10.2169333 L18.4353447,8.95026667 C19.0291581,8.2593 19.165674,7.296 18.7922449,6.4353 L18.7922449,6.4353 Z" id="Fill-1-Copy" fill="#C2C9D4"></path>
    </g>
</svg>