<?xml version="1.0" encoding="UTF-8"?>
<svg width="38px" height="38px" viewBox="0 0 38 38" version="1.1" xmlns="http://www.w3.org/2000/svg" xmlns:xlink="http://www.w3.org/1999/xlink">
    <!-- Generator: sketchtool 56.3 (101010) - https://sketch.com -->
    <title>A83F2CE7-D6D0-4D50-81C0-AB86672AB57C</title>
    <desc>Created with sketchtool.</desc>
    <g id="Page-1" stroke="none" stroke-width="1" fill="none" fill-rule="evenodd">
        <g id="Usuario-V1" transform="translate(-1241.000000, -225.000000)" fill="#F55753">
            <g id="Group-5" transform="translate(1173.000000, 215.000000)">
                <path d="M103.035377,26.2247333 L95.3255967,35.3333333 L72.4374539,35.3333333 C71.6489676,35.3333333 70.9780195,34.8824 70.6449942,34.1262 C70.4515457,33.6904667 70.4197124,33.2357333 70.5152123,32.8 L79.5497478,32.8 L79.5497478,30.2666667 L72.2109477,30.2666667 L74.1895098,27.7333333 L96.4348648,27.7333333 L100.72379,22.6666667 L101.56125,22.6666667 C102.344839,22.6666667 103.012114,23.1315333 103.351261,23.908 C103.621844,24.535 103.683062,25.4698 103.035377,26.2247333 L103.035377,26.2247333 Z M101.56125,32.8 C102.344839,32.8 103.012114,33.2648667 103.351261,34.0413333 C103.621844,34.6683333 103.683062,35.6031333 103.035377,36.3580667 L95.3255967,45.4666667 L72.4374539,45.4666667 C71.6624355,45.4666667 70.9963849,45.0081333 70.6560135,44.2392667 C70.496847,43.8782667 70.4270586,43.4121333 70.5066418,42.9333333 L89.3446094,42.9333333 L89.3446094,40.4 L72.1485055,40.4 L74.1478816,37.8666667 L96.4348648,37.8666667 L100.72379,32.8 L101.56125,32.8 Z M70.952308,24.2677333 C70.6498917,23.7826 70.5384751,23.2037333 70.6278532,22.6666667 L85.6715363,22.6666667 L85.6715363,20.1333333 L72.3835822,20.1333333 L78.8151332,12.5333333 L101.56125,12.5333333 C102.344839,12.5333333 103.012114,12.9982 103.351261,13.7746667 C103.621844,14.4016667 103.683062,15.3364667 103.035377,16.0914 L95.3255967,25.2 L72.5794794,25.2 C71.6722303,25.2 71.171468,24.6148 70.952308,24.2677333 L70.952308,24.2677333 Z M105.58449,22.8706 C105.020061,21.571 103.975684,20.6564667 102.726839,20.3005333 L104.870689,17.7672 C106.058316,16.3852667 106.331348,14.4586667 105.58449,12.7372667 C104.8511,11.0488 103.310858,10 101.56125,10 L77.7058651,10 L69.2712649,19.9661333 C68.9639511,20.3220667 68.7154065,20.7198 68.5305285,21.1466667 C67.9122279,22.5729333 68.0542534,24.2968667 68.8978358,25.6446 C69.4683865,26.5566 70.2911549,27.176 71.2314616,27.4914 L69.0839382,30.2413333 C67.9342663,31.6207333 67.6795999,33.5144 68.4191119,35.1826 C68.9639511,36.4125333 69.9544565,37.2954 71.1445322,37.6678 L69.0839382,40.2796667 C67.9256958,41.6692 67.6759268,43.5907333 68.4301312,45.2944 C69.1696432,46.9638667 70.7049878,48 72.4374539,48 L96.4348648,48 L104.870689,38.0338667 C106.058316,36.6519333 106.331348,34.7253333 105.58449,33.0039333 C105.020061,31.7043333 103.975684,30.7898 102.726839,30.4338667 L104.870689,27.9005333 C106.058316,26.5186 106.331348,24.592 105.58449,22.8706 L105.58449,22.8706 Z" id="Fill-1-Copy"></path>
            </g>
        </g>
    </g>
</svg>