<?xml version="1.0" encoding="UTF-8"?>
<svg width="16px" height="19px" viewBox="0 0 16 19" version="1.1" xmlns="http://www.w3.org/2000/svg" xmlns:xlink="http://www.w3.org/1999/xlink">
    <!-- Generator: Sketch 56.3 (81716) - https://sketch.com -->
    <title>Fill 1 Copy 6</title>
    <desc>Created with Sketch.</desc>
    <g id="Page-1" stroke="none" stroke-width="1" fill="none" fill-rule="evenodd">
        <path d="M14.8571429,17.3235294 C14.8571429,17.6314412 14.6011429,17.8823529 14.2857143,17.8823529 L2.85714286,17.8823529 C2.54171429,17.8823529 2.28571429,17.6314412 2.28571429,17.3235294 L2.28571429,16.2058824 L3.42857143,16.2058824 L3.42857143,15.0882353 L2.28571429,15.0882353 L2.28571429,12.2941176 L3.42857143,12.2941176 L3.42857143,11.1764706 L2.28571429,11.1764706 L2.28571429,7.82352941 L3.42857143,7.82352941 L3.42857143,6.70588235 L2.28571429,6.70588235 L2.28571429,3.91176471 L3.42857143,3.91176471 L3.42857143,2.79411765 L2.28571429,2.79411765 L2.28571429,1.67647059 C2.28571429,1.36855882 2.54171429,1.11764706 2.85714286,1.11764706 L12,1.11764706 L12,15.0882353 L13.1428571,15.0882353 L13.1428571,1.11764706 L14.2857143,1.11764706 C14.6011429,1.11764706 14.8571429,1.36855882 14.8571429,1.67647059 L14.8571429,17.3235294 Z M14.2857143,0 L2.85714286,0 C1.912,0 1.14285714,0.752176471 1.14285714,1.67647059 L1.14285714,2.79411765 L0,2.79411765 L0,3.91176471 L1.14285714,3.91176471 L1.14285714,6.70588235 L0,6.70588235 L0,7.82352941 L1.14285714,7.82352941 L1.14285714,11.1764706 L0,11.1764706 L0,12.2941176 L1.14285714,12.2941176 L1.14285714,15.0882353 L0,15.0882353 L0,16.2058824 L1.14285714,16.2058824 L1.14285714,17.3235294 C1.14285714,18.2478235 1.912,19 2.85714286,19 L14.2857143,19 C15.2308571,19 16,18.2478235 16,17.3235294 L16,1.67647059 C16,0.752176471 15.2308571,0 14.2857143,0 L14.2857143,0 Z" id="Fill-1-Copy-6" fill="#E63528"></path>
    </g>
</svg>