<?xml version="1.0" encoding="UTF-8"?>
<svg width="45px" height="20px" viewBox="0 0 45 20" version="1.1" xmlns="http://www.w3.org/2000/svg" xmlns:xlink="http://www.w3.org/1999/xlink">
    <!-- Generator: Sketch 57 (83077) - https://sketch.com -->
    <title>Group</title>
    <desc>Created with Sketch.</desc>
    <g id="Page-1" stroke="none" stroke-width="1" fill="none" fill-rule="evenodd">
        <g id="versión-5" transform="translate(-1290.000000, -1531.000000)">
            <g id="Group" transform="translate(1290.000000, 1531.000000)">
                <rect id="Rectangle" stroke="#00C875" stroke-width="1.86666667" x="0.933333333" y="0.933333333" width="43.1333333" height="18.1333333" rx="4"></rect>
                <path d="M5,13.2644824 L5,6.93732194 C5,6.2962963 5.37634409,5.89268756 5.96438172,5.89268756 C6.45833333,5.89268756 6.78763441,6.18945869 7.10517473,6.74738841 L9.55141129,11.151472 L9.5984543,11.151472 L9.5984543,6.73551757 C9.5984543,6.20132953 9.91599462,5.89268756 10.3864247,5.89268756 C10.8568548,5.89268756 11.1743952,6.20132953 11.1743952,6.73551757 L11.1743952,13.0626781 C11.1743952,13.7037037 10.7980511,14.1073124 10.2100134,14.1073124 C9.71606183,14.1073124 9.38676075,13.8105413 9.06922043,13.2526116 L6.62298387,8.86039886 L6.57594086,8.86039886 L6.57594086,13.2644824 C6.57594086,13.7986705 6.25840054,14.1073124 5.78797043,14.1073124 C5.31754032,14.1073124 5,13.7986705 5,13.2644824 Z M15.7375672,14.1666667 C13.8676075,14.1666667 12.6680108,13.0745489 12.6680108,11.0565052 L12.6680108,6.81861349 C12.6680108,6.26068376 13.0325941,5.89268756 13.5383065,5.89268756 C14.0322581,5.89268756 14.3968414,6.26068376 14.3968414,6.81861349 L14.3968414,11.1158594 C14.3968414,12.0892688 14.9731183,12.6234568 15.7375672,12.6234568 C16.5372984,12.6234568 17.0665323,12.0773979 17.0665323,11.1158594 L17.0665323,6.81861349 C17.0665323,6.26068376 17.4311156,5.89268756 17.9250672,5.89268756 C18.4307796,5.89268756 18.7953629,6.26068376 18.7953629,6.81861349 L18.7953629,11.0565052 C18.7953629,13.0745489 17.5369624,14.1666667 15.7375672,14.1666667 Z M20.2889785,13.2644824 L20.2889785,6.73551757 C20.2889785,6.27255461 20.5712366,5.96391263 21.0416667,5.96391263 L24.9227151,5.96391263 C25.4049059,5.96391263 25.7224462,6.28442545 25.7224462,6.72364672 C25.7224462,7.15099715 25.4049059,7.47150997 24.9227151,7.47150997 L22.0883737,7.47150997 C22.0413306,7.47150997 22.0178091,7.49525166 22.0178091,7.54273504 L22.0178091,9.14529915 C22.0178091,9.19278253 22.0413306,9.21652422 22.0883737,9.21652422 L24.3581989,9.21652422 C24.8403898,9.21652422 25.1461694,9.52516619 25.1461694,9.96438746 C25.1461694,10.4036087 24.8403898,10.7122507 24.3581989,10.7122507 L22.0883737,10.7122507 C22.0413306,10.7122507 22.0178091,10.7359924 22.0178091,10.7834758 L22.0178091,12.457265 C22.0178091,12.5047483 22.0413306,12.52849 22.0883737,12.52849 L24.9227151,12.52849 C25.4049059,12.52849 25.7224462,12.8490028 25.7224462,13.2763533 C25.7224462,13.7155745 25.4049059,14.0360874 24.9227151,14.0360874 L21.0416667,14.0360874 C20.5712366,14.0360874 20.2889785,13.7274454 20.2889785,13.2644824 Z M29.6740591,14.1073124 C29.156586,14.1073124 28.8272849,13.834283 28.5685484,13.0864198 L26.5339382,7.07977208 C26.4986559,6.96106363 26.4751344,6.83048433 26.4751344,6.71177588 C26.4751344,6.26068376 26.827957,5.89268756 27.3219086,5.89268756 C27.7217742,5.89268756 28.0040323,6.10636277 28.156922,6.56932574 L29.6975806,11.377018 L29.7328629,11.377018 L31.1911962,6.56932574 C31.3323253,6.10636277 31.6263441,5.89268756 32.0262097,5.89268756 C32.5201613,5.89268756 32.8612231,6.26068376 32.8612231,6.71177588 C32.8612231,6.83048433 32.8377016,6.96106363 32.8024194,7.07977208 L30.7678091,13.0864198 C30.5090726,13.834283 30.1797715,14.1073124 29.6740591,14.1073124 Z M36.859879,14.1666667 C35.4603495,14.1666667 34.3665995,13.5137702 33.9432124,12.2079772 C33.7668011,11.6381766 33.7197581,11.1870845 33.7197581,10 C33.7197581,8.81291548 33.7668011,8.36182336 33.9432124,7.79202279 C34.3665995,6.48622982 35.4603495,5.83333333 36.859879,5.83333333 C38.2594086,5.83333333 39.3531586,6.48622982 39.7765457,7.79202279 C39.952957,8.36182336 40,8.81291548 40,10 C40,11.1870845 39.952957,11.6381766 39.7765457,12.2079772 C39.3531586,13.5137702 38.2594086,14.1666667 36.859879,14.1666667 Z M36.859879,12.6234568 C37.5184812,12.6234568 37.9418683,12.2910731 38.1182796,11.7450142 C38.2123656,11.4482431 38.2476478,11.0446344 38.2476478,10 C38.2476478,8.95536562 38.2123656,8.55175689 38.1182796,8.25498575 C37.9418683,7.70892688 37.5184812,7.37654321 36.859879,7.37654321 C36.2012769,7.37654321 35.7778898,7.70892688 35.6014785,8.25498575 C35.5073925,8.55175689 35.4721102,8.95536562 35.4721102,10 C35.4721102,11.0446344 35.5073925,11.4482431 35.6014785,11.7450142 C35.7778898,12.2910731 36.2012769,12.6234568 36.859879,12.6234568 Z" id="NUEVO" fill="#00C875" fill-rule="nonzero"></path>
            </g>
        </g>
    </g>
</svg>