<?xml version="1.0" encoding="UTF-8"?>
<svg width="19px" height="20px" viewBox="0 0 19 20" version="1.1" xmlns="http://www.w3.org/2000/svg" xmlns:xlink="http://www.w3.org/1999/xlink">
    <!-- Generator: Sketch 56.3 (81716) - https://sketch.com -->
    <title>Fill 1</title>
    <desc>Created with Sketch.</desc>
    <g id="Page-1" stroke="none" stroke-width="1" fill="none" fill-rule="evenodd">
        <path d="M9.80137931,14.1178369 C9.61203448,14.2165721 9.38796552,14.2165721 9.19731034,14.1178369 L1.3182069,9.96773374 L4.20358621,8.46153862 L8.58537931,10.7427725 C8.8657931,10.8892619 9.18289655,10.9667012 9.5,10.9667012 C9.81710345,10.9667012 10.1342069,10.8892619 10.4152759,10.7427725 L14.7918276,8.4634746 L17.6817931,10.0058081 L9.80137931,14.1178369 Z M17.6837586,14.5624678 L9.804,18.6351317 C9.61268966,18.7345121 9.38534483,18.7338668 9.19534483,18.6351317 L1.31624138,14.5373 L4.27303448,13.0085184 L8.58406897,15.2581312 C8.87103448,15.4078472 9.18617241,15.4827053 9.5,15.4827053 C9.81513793,15.4827053 10.1289655,15.4078472 10.4152759,15.2581312 L14.7230345,13.0104544 L17.6837586,14.5624678 Z M9.19665517,1.36099663 C9.29034483,1.31195172 9.39517241,1.28678394 9.5,1.28678394 C9.60417241,1.28678394 9.709,1.31195172 9.80203448,1.36099663 L17.6817931,5.4988386 L9.80203448,9.60183287 C9.61596552,9.69927737 9.38206897,9.69927737 9.19731034,9.60118754 L1.3182069,5.46334557 L9.19665517,1.36099663 Z M19,9.98644825 C19,9.49793509 18.730069,9.05394955 18.2950345,8.82679416 L16.1971724,7.73231818 L18.2950345,6.63977819 C18.730069,6.41326812 19,5.96928258 19,5.48076942 C18.9993448,4.99290159 18.7294138,4.54891606 18.2950345,4.32240599 L10.4152759,0.220057052 C9.85313793,-0.0729217769 9.14751724,-0.0735671047 8.58472414,0.219411725 L0.70562069,4.32240599 C0.270586207,4.54891606 0,4.99225627 0,5.48076942 C0,5.96928258 0.269931034,6.41326812 0.704965517,6.64042351 L2.80217241,7.73231818 L0.704965517,8.82679416 C0.269931034,9.05330422 0,9.49793509 0,9.98644825 C0,10.4756067 0.269931034,10.9195923 0.704965517,11.1467477 L2.87096552,12.2760713 L0.707586207,13.3944245 C0.270586207,13.6202892 0,14.0629841 0,14.5502066 C0,15.0374291 0.270586207,15.480124 0.706931034,15.7053434 L8.58668966,19.7780072 C8.873,19.9257873 9.18682759,20 9.5,20 C9.81382759,20 10.127,19.9257873 10.4133103,19.7780072 L18.293069,15.7053434 C18.7287586,15.480124 19,15.0374291 19,14.5502066 C19,14.0629841 18.7287586,13.6202892 18.293069,13.3950698 L16.1290345,12.2760713 L18.2950345,11.1467477 C18.730069,10.9195923 19,10.4749614 19,9.98644825 L19,9.98644825 Z" id="Fill-1" fill="#C2C9D4"></path>
    </g>
</svg>