<?xml version="1.0" encoding="UTF-8"?>
<svg width="19px" height="18px" viewBox="0 0 19 18" version="1.1" xmlns="http://www.w3.org/2000/svg" xmlns:xlink="http://www.w3.org/1999/xlink">
    <!-- Generator: Sketch 56.3 (81716) - https://sketch.com -->
    <title>Group 6 Copy 2</title>
    <desc>Created with Sketch.</desc>
    <g id="Page-1" stroke="none" stroke-width="1" fill="none" fill-rule="evenodd">
        <g id="Group-6-Copy-2" fill="#E63528">
            <path d="M6.78551071,3.33333333 C6.78551071,2.23066667 7.69886786,1.33333333 8.821225,1.33333333 L10.1783679,1.33333333 C11.300725,1.33333333 12.2140821,2.23066667 12.2140821,3.33333333 L12.2140821,5.34733333 C12.2140821,6.81866667 10.996725,8.014 9.49979643,8.014 C8.00286786,8.014 6.78551071,6.81866667 6.78551071,5.34733333 L6.78551071,3.33333333 Z M9.49979643,9.34733333 C11.7451893,9.34733333 13.571225,7.55333333 13.571225,5.34733333 L13.571225,3.33333333 C13.571225,1.49533333 12.0491893,-8.97060204e-14 10.1783679,-8.97060204e-14 L8.821225,-8.97060204e-14 C6.95040357,-8.97060204e-14 5.42836786,1.49533333 5.42836786,3.33333333 L5.42836786,5.34733333 C5.42836786,7.55333333 7.25440357,9.34733333 9.49979643,9.34733333 L9.49979643,9.34733333 Z" id="Fill-1"></path>
            <path d="M1.3775,15.5371333 C1.58989286,13.0211333 3.44239286,11.1438 6.21775,10.6918 C6.48714286,10.6524667 6.73617857,10.7758 6.85967857,11.0144667 C7.42628571,12.1058 8.38917857,12.7311333 9.5,12.7311333 C10.6101429,12.7311333 11.5730357,12.1058 12.1396429,11.0144667 C12.2638214,10.7764667 12.51625,10.6531333 12.78225,10.6918 C15.5569286,11.1438 17.4094286,13.0211333 17.6218214,15.5371333 C12.3391429,17.0371333 6.66017857,17.0371333 1.3775,15.5371333 M13.0034643,9.37713333 C12.1471071,9.2358 11.31925,9.66046667 10.9311071,10.4078 C10.6963214,10.8591333 10.2579643,11.3978 9.5,11.3978 C8.74203571,11.3978 8.303,10.8591333 8.06821429,10.4078 C7.68007143,9.66046667 6.85425,9.2358 5.99653571,9.37713333 C2.40960714,9.96046667 0,12.6331333 0,16.0278 L0,16.5204667 L0.478392857,16.6651333 C3.40371429,17.5511333 6.43896429,17.9998 9.5,17.9998 C12.5603571,17.9998 15.5956071,17.5511333 18.5216071,16.6651333 L19,16.5204667 L19,16.0278 C19,12.6331333 16.5903929,9.96046667 13.0034643,9.37713333" id="Fill-3"></path>
        </g>
    </g>
</svg>