<?xml version="1.0" encoding="UTF-8"?>
<svg width="40px" height="38px" viewBox="0 0 40 38" version="1.1" xmlns="http://www.w3.org/2000/svg" xmlns:xlink="http://www.w3.org/1999/xlink">
    <!-- Generator: sketchtool 56.3 (101010) - https://sketch.com -->
    <title>09070E7B-05B4-4170-BB26-5DBBF3B8EAFF</title>
    <desc>Created with sketchtool.</desc>
    <g id="Page-1" stroke="none" stroke-width="1" fill="none" fill-rule="evenodd">
        <g id="Supervisor-V1" transform="translate(-476.000000, -223.000000)" fill="#FB7C37">
            <g id="Group-8" transform="translate(408.000000, 215.000000)">
                <g id="Group-6-Copy" transform="translate(68.000000, 8.000000)">
                    <path d="M14.2852857,7.03703704 C14.2852857,4.70918519 16.2081429,2.81481481 18.571,2.81481481 L21.4281429,2.81481481 C23.791,2.81481481 25.7138571,4.70918519 25.7138571,7.03703704 L25.7138571,11.2888148 C25.7138571,14.394963 23.151,16.9184444 19.9995714,16.9184444 C16.8481429,16.9184444 14.2852857,14.394963 14.2852857,11.2888148 L14.2852857,7.03703704 Z M19.9995714,19.7332593 C24.7267143,19.7332593 28.571,15.9459259 28.571,11.2888148 L28.571,7.03703704 C28.571,3.15681481 25.3667143,-8.97060204e-14 21.4281429,-8.97060204e-14 L18.571,-8.97060204e-14 C14.6324286,-8.97060204e-14 11.4281429,3.15681481 11.4281429,7.03703704 L11.4281429,11.2888148 C11.4281429,15.9459259 15.2724286,19.7332593 19.9995714,19.7332593 L19.9995714,19.7332593 Z" id="Fill-1"></path>
                    <path d="M2.9,32.8006148 C3.34714286,27.4890593 7.24714286,23.5258 13.09,22.5715778 C13.6571429,22.4885407 14.1814286,22.7489111 14.4414286,23.252763 C15.6342857,25.5566889 17.6614286,26.876837 20,26.876837 C22.3371429,26.876837 24.3642857,25.5566889 25.5571429,23.252763 C25.8185714,22.7503185 26.35,22.4899481 26.91,22.5715778 C32.7514286,23.5258 36.6514286,27.4890593 37.0985714,32.8006148 C25.9771429,35.9672815 14.0214286,35.9672815 2.9,32.8006148 M27.3757143,19.7961704 C25.5728571,19.4978 23.83,20.3943185 23.0128571,21.9720222 C22.5185714,22.924837 21.5957143,24.0620222 20,24.0620222 C18.4042857,24.0620222 17.48,22.924837 16.9857143,21.9720222 C16.1685714,20.3943185 14.43,19.4978 12.6242857,19.7961704 C5.07285714,21.0276519 0,26.6699481 0,33.8364667 L0,34.8765407 L1.00714286,35.1819481 C7.16571429,37.0523926 13.5557143,37.9995778 20,37.9995778 C26.4428571,37.9995778 32.8328571,37.0523926 38.9928571,35.1819481 L40,34.8765407 L40,33.8364667 C40,26.6699481 34.9271429,21.0276519 27.3757143,19.7961704" id="Fill-3"></path>
                </g>
            </g>
        </g>
    </g>
</svg>