<?xml version="1.0" encoding="UTF-8"?>
<svg width="47px" height="45px" viewBox="0 0 47 45" version="1.1" xmlns="http://www.w3.org/2000/svg" xmlns:xlink="http://www.w3.org/1999/xlink">
    <!-- Generator: sketchtool 54.1 (76490) - https://sketchapp.com -->
    <title>3C1D03F7-C1F8-4DF0-8B98-ED256ABF4BCB</title>
    <desc>Created with sketchtool.</desc>
    <g id="Page-1" stroke="none" stroke-width="1" fill="none" fill-rule="evenodd">
        <g id="versión-3" transform="translate(-375.000000, -2160.000000)" fill="#4A4A4A">
            <path d="M417.922968,2179.2135 L408.477468,2190 L380.436468,2190 C379.470468,2190 378.648468,2189.466 378.240468,2188.5705 C378.003468,2188.0545 377.964468,2187.516 378.081468,2187 L389.149968,2187 L389.149968,2184 L380.158968,2184 L382.582968,2181 L409.836468,2181 L415.090968,2175 L416.116968,2175 C417.076968,2175 417.894468,2175.5505 418.309968,2176.47 C418.641468,2177.2125 418.716468,2178.3195 417.922968,2179.2135 L417.922968,2179.2135 Z M416.116968,2187 C417.076968,2187 417.894468,2187.5505 418.309968,2188.47 C418.641468,2189.2125 418.716468,2190.3195 417.922968,2191.2135 L408.477468,2202 L380.436468,2202 C379.486968,2202 378.670968,2201.457 378.253968,2200.5465 C378.058968,2200.119 377.973468,2199.567 378.070968,2199 L401.149968,2199 L401.149968,2196 L380.082468,2196 L382.531968,2193 L409.836468,2193 L415.090968,2187 L416.116968,2187 Z M378.616968,2176.896 C378.246468,2176.3215 378.109968,2175.636 378.219468,2175 L396.649968,2175 L396.649968,2172 L380.370468,2172 L388.249968,2163 L416.116968,2163 C417.076968,2163 417.894468,2163.5505 418.309968,2164.47 C418.641468,2165.2125 418.716468,2166.3195 417.922968,2167.2135 L408.477468,2178 L380.610468,2178 C379.498968,2178 378.885468,2177.307 378.616968,2176.896 L378.616968,2176.896 Z M421.045968,2175.2415 C420.354468,2173.7025 419.074968,2172.6195 417.544968,2172.198 L420.171468,2169.198 C421.626468,2167.5615 421.960968,2165.28 421.045968,2163.2415 C420.147468,2161.242 418.260468,2160 416.116968,2160 L386.890968,2160 L376.557468,2171.802 C376.180968,2172.2235 375.876468,2172.6945 375.649968,2173.2 C374.892468,2174.889 375.066468,2176.9305 376.099968,2178.5265 C376.798968,2179.6065 377.806968,2180.34 378.958968,2180.7135 L376.327968,2183.97 C374.919468,2185.6035 374.607468,2187.846 375.513468,2189.8215 C376.180968,2191.278 377.394468,2192.3235 378.852468,2192.7645 L376.327968,2195.8575 C374.908968,2197.503 374.602968,2199.7785 375.526968,2201.796 C376.432968,2203.773 378.313968,2205 380.436468,2205 L409.836468,2205 L420.171468,2193.198 C421.626468,2191.5615 421.960968,2189.28 421.045968,2187.2415 C420.354468,2185.7025 419.074968,2184.6195 417.544968,2184.198 L420.171468,2181.198 C421.626468,2179.5615 421.960968,2177.28 421.045968,2175.2415 L421.045968,2175.2415 Z" id="Fill-1"></path>
        </g>
    </g>
</svg>