<?xml version="1.0" encoding="UTF-8"?>
<svg width="26px" height="45px" viewBox="0 0 26 45" version="1.1" xmlns="http://www.w3.org/2000/svg" xmlns:xlink="http://www.w3.org/1999/xlink">
    <!-- Generator: sketchtool 54.1 (76490) - https://sketchapp.com -->
    <title>4CEFAAD9-489F-4C84-8C79-A83E5F640AA0</title>
    <desc>Created with sketchtool.</desc>
    <g id="Page-1" stroke="none" stroke-width="1" fill="none" fill-rule="evenodd">
        <g id="versión-3" transform="translate(-1021.000000, -2160.000000)" fill="#4A4A4A">
            <g id="Group-5" transform="translate(1021.000000, 2160.000000)">
                <path d="M19.5,40.6694118 L14.3,37.9588235 L14.3,34.4117647 L11.7,34.4117647 L11.7,37.9588235 L6.5,40.6694118 L6.5,24.6798529 C8.4149,25.8114706 10.6314,26.4705882 13,26.4705882 C15.3686,26.4705882 17.5851,25.8114706 19.5,24.6798529 L19.5,40.6694118 Z M2.6,13.2352941 C2.6,7.39720588 7.2657,2.64705882 13,2.64705882 C18.7343,2.64705882 23.4,7.39720588 23.4,13.2352941 C23.4,19.0733824 18.7343,23.8235294 13,23.8235294 C7.2657,23.8235294 2.6,19.0733824 2.6,13.2352941 L2.6,13.2352941 Z M26,13.2352941 C26,5.93735294 20.1682,-7.10542736e-15 13,-7.10542736e-15 C5.8318,-7.10542736e-15 0,5.93735294 0,13.2352941 C0,16.9279412 1.4963,20.2672059 3.9,22.6707353 L3.9,44.9986765 L13,40.2551471 L22.1,44.9986765 L22.1,22.6707353 C24.5037,20.2672059 26,16.9279412 26,13.2352941 L26,13.2352941 Z" id="Fill-1"></path>
                <path d="M13,7.94117647 C15.8678,7.94117647 18.2,10.3155882 18.2,13.2352941 C18.2,16.155 15.8678,18.5294118 13,18.5294118 C10.1322,18.5294118 7.8,16.155 7.8,13.2352941 C7.8,10.3155882 10.1322,7.94117647 13,7.94117647 M13,21.1764706 C17.3017,21.1764706 20.8,17.6148529 20.8,13.2352941 C20.8,8.85573529 17.3017,5.29411765 13,5.29411765 C8.6983,5.29411765 5.2,8.85573529 5.2,13.2352941 C5.2,17.6148529 8.6983,21.1764706 13,21.1764706" id="Fill-3"></path>
            </g>
        </g>
    </g>
</svg>