<?xml version="1.0" encoding="UTF-8"?>
<svg width="145px" height="33px" viewBox="0 0 145 33" version="1.1" xmlns="http://www.w3.org/2000/svg" xmlns:xlink="http://www.w3.org/1999/xlink">
    <!-- Generator: Sketch 54.1 (76490) - https://sketchapp.com -->
    <title>Group 39</title>
    <desc>Created with Sketch.</desc>
    <g id="Page-1" stroke="none" stroke-width="1" fill="none" fill-rule="evenodd">
        <g id="Artboard" transform="translate(-101.000000, -32.000000)">
            <g id="Group-39" transform="translate(101.000000, 32.000000)">
                <path d="M8.9696,9.3596 C8.6396,9.2396 8.1296,9.1496 7.5896,9.1496 C5.6396,9.1496 4.9796,11.4896 4.9796,14.0696 C4.9796,16.3796 5.3996,18.2986 7.1396,18.2986 C8.3096,18.2986 8.9696,17.4596 8.9696,16.5896 L8.9696,9.3596 Z M13.9486,18.1796 L14.2796,21.4196 L10.0196,21.4196 L9.8096,20.0086 L9.6296,19.9796 C8.7296,21.3896 7.3196,21.8696 5.7596,21.8696 C1.1696,21.8696 -0.0004,18.1796 -0.0004,14.4296 C-0.0004,9.1496 2.6696,5.6096 8.1296,5.6096 C9.2096,5.6096 11.5196,5.8796 13.9486,6.8096 L13.9486,18.1796 Z" id="Fill-1" fill="#1F75BB"></path>
                <path d="M30.2689,6.0598 L30.2689,18.5098 L30.5989,21.4188 L26.3689,21.4188 L26.1589,19.9788 L26.0389,19.9788 C25.1089,21.2088 23.6689,21.8098 22.0789,21.8098 C18.6589,21.8098 16.9789,20.0088 16.9789,16.3788 L16.9789,6.0598 L22.0189,6.0598 L22.0189,15.7198 C22.0189,17.0698 22.1689,17.9988 23.4289,17.9988 C24.4789,17.9988 25.2589,17.1598 25.2589,15.9588 L25.2589,6.0598 L30.2689,6.0598 Z" id="Fill-4" fill="#1F75BB"></path>
                <path d="M38.369,0.5701 L38.369,15.9891 C38.369,17.3391 38.699,17.9691 39.659,17.9691 C40.109,17.9691 40.709,17.7591 41.399,17.4591 L42.479,20.7891 C41.429,21.4791 39.629,21.8991 38.279,21.8991 C33.629,21.8991 33.359,19.2591 33.359,16.3791 L33.359,0.5701 L38.369,0.5701 Z" id="Fill-6" fill="#1F75BB"></path>
                <path d="M51.6586,9.3596 C51.3286,9.2396 50.8186,9.1496 50.2786,9.1496 C48.3286,9.1496 47.6686,11.4896 47.6686,14.0696 C47.6686,16.3796 48.0886,18.2986 49.8286,18.2986 C50.9986,18.2986 51.6586,17.4596 51.6586,16.5896 L51.6586,9.3596 Z M56.6376,18.1796 L56.9686,21.4196 L52.7086,21.4196 L52.4986,20.0086 L52.3186,19.9796 C51.4186,21.3896 50.0086,21.8696 48.4486,21.8696 C43.8586,21.8696 42.6886,18.1796 42.6886,14.4296 C42.6886,9.1496 45.3586,5.6096 50.8186,5.6096 C51.8986,5.6096 54.2086,5.8796 56.6376,6.8096 L56.6376,18.1796 Z" id="Fill-8" fill="#1F75BB"></path>
                <path d="M71.4887,6.3299 C72.0287,8.2199 72.4787,10.6499 72.4787,12.9299 C72.4787,18.4499 70.0487,21.8389 65.2787,21.8389 C61.7387,21.8389 60.0287,20.1889 60.0287,16.4989 L60.0287,6.3299 L63.6297,6.3299 L63.6297,15.7799 C63.6297,17.6089 63.7487,19.0489 65.6687,19.0489 C68.1887,19.0489 68.9677,16.0499 68.9677,13.1699 C68.9677,10.6499 68.4287,8.2499 67.9487,6.3299 L71.4887,6.3299 Z" id="Fill-10" fill="#686868"></path>
                <path d="M75.689,21.4191 L79.258,21.4191 L79.258,6.3301 L75.689,6.3301 L75.689,21.4191 Z M77.458,0.0001 C78.689,0.0001 79.529,0.9001 79.529,2.0101 C79.529,3.1501 78.659,3.9901 77.458,3.9901 C76.199,3.9901 75.389,3.1501 75.389,2.0101 C75.389,0.9001 76.229,0.0001 77.458,0.0001 L77.458,0.0001 Z" id="Fill-12" fill="#686868"></path>
                <path d="M86.5775,21.4192 L83.0085,21.4192 L83.0085,8.7592 L82.7375,6.3302 L85.6785,6.3302 L86.0385,8.5202 C86.6975,6.8102 88.1685,5.8792 89.6685,5.8792 C90.5675,5.8792 91.4075,6.0892 92.0675,6.4802 L91.4375,9.5092 C90.7775,9.1492 90.0885,8.9102 89.3075,8.9102 C87.6875,8.9102 86.6385,10.1992 86.5775,11.9402 L86.5775,21.4192 Z" id="Fill-14" fill="#686868"></path>
                <path d="M97.4984,0.5701 L97.4984,6.3301 L101.5484,6.3301 L101.5484,9.1201 L97.4984,9.1201 L97.4984,16.7391 C97.4984,18.5691 98.2184,19.1091 99.4474,19.1091 C100.2584,19.1091 101.0084,18.7791 101.4874,18.4791 L102.3884,20.7891 C101.4874,21.4191 99.9874,21.8391 98.5774,21.8391 C93.8974,21.8391 93.9284,18.9591 93.9284,16.8601 L93.9283973,0.5701 L97.4984,0.5701 Z" id="Fill-15" fill="#686868"></path>
                <path d="M116.5482,6.3299 L116.5482,18.8989 L116.7872,21.4189 L113.7282,21.4189 L113.5182,19.6489 L113.3982,19.6489 C112.3782,21.1489 110.7582,21.8389 109.0482,21.8389 C105.7482,21.8389 104.0982,20.0999 104.0982,16.5589 L104.0982,6.3299 L107.6682,6.3299 L107.6682,15.8999 C107.6682,17.7289 107.9982,19.0799 110.0082,19.0799 C111.6282,19.0799 112.9782,17.6399 112.9782,16.1999 L112.9782,6.3299 L116.5482,6.3299 Z" id="Fill-16" fill="#686868"></path>
                <path d="M129.1478,8.8797 C128.6978,8.6697 127.8278,8.4897 126.8978,8.4897 C124.0478,8.4897 123.0878,11.1597 123.0878,14.3997 C123.0878,16.8897 123.6878,19.2587 126.2078,19.2587 C128.0678,19.2587 129.1478,17.9397 129.1478,16.6497 L129.1478,8.8797 Z M132.6878,18.5397 L132.9578,21.4197 L129.8678,21.4197 L129.6578,19.8297 L129.5378,19.7987 C128.6078,21.1497 127.0778,21.8097 125.4278,21.8097 C121.1978,21.8097 119.5478,18.8097 119.5478,14.5197 C119.5478,9.2397 122.1878,5.8797 127.3478,5.8797 C128.3368,5.8797 130.5278,6.1197 132.6878,6.9297 L132.6878,18.5397 Z" id="Fill-17" fill="#686868"></path>
                <path d="M140.0072,0.5999 L140.0072,16.4989 C140.0072,18.3589 140.3972,19.0489 141.6272,19.0489 C142.2272,19.0489 142.8872,18.8389 143.5172,18.5689 L144.2972,20.9689 C143.4862,21.4789 142.0172,21.8699 140.7272,21.8699 C136.6772,21.8699 136.4382,19.4989 136.4382,17.2489 L136.4382,0.5999 L140.0072,0.5999 Z" id="Fill-18" fill="#686868"></path>
                <path d="M1.3754,27.4363 L1.3754,30.9143 C1.3754,31.5213 1.6874,31.7063 2.1264,31.7063 C2.5424,31.7063 2.8384,31.4573 2.8384,30.9543 L2.8384,27.4363 L4.2134,27.4363 L4.2134,31.1143 C4.2134,32.1933 3.3504,32.8493 2.0944,32.8493 C0.7114,32.8493 0.0004,32.2893 0.0004,30.9943 L0.0004,27.4363 L1.3754,27.4363 Z" id="Fill-19" fill="#BABABA"></path>
                <path d="M5.0477,32.7532 L5.0477,29.4832 L4.9517,28.6592 L6.0637,28.6592 L6.1427,29.0992 C6.3987,28.7552 6.7747,28.5392 7.3107,28.5392 C8.0937,28.5392 8.5897,28.9792 8.5897,29.9552 L8.5897,32.7532 L7.2467,32.7532 L7.2467,30.1872 C7.2467,29.8182 7.2067,29.5632 6.8947,29.5632 C6.5667,29.5632 6.3747,29.8182 6.3747,30.1622 L6.3747,32.7532 L5.0477,32.7532 Z" id="Fill-20" fill="#BABABA"></path>
                <path d="M10.9838,31.49 C11.2798,31.682 11.8158,31.906 12.1748,31.906 C12.4148,31.906 12.5588,31.825 12.5588,31.602 C12.5588,31.362 12.3268,31.282 12.0388,31.194 C11.4078,30.994 10.7758,30.754 10.7758,29.891 C10.7758,29.011 11.4798,28.539 12.3748,28.539 C13.0148,28.539 13.5898,28.78 13.9828,29.139 L13.3748,29.907 C13.0228,29.635 12.6948,29.491 12.4468,29.491 C12.2228,29.491 12.0788,29.587 12.0788,29.779 C12.0788,30.011 12.3028,30.115 12.6308,30.219 C13.2228,30.41 13.8858,30.666 13.8858,31.514 C13.8858,32.409 13.2388,32.881 12.2548,32.881 C11.5118,32.881 10.8878,32.609 10.6398,32.433 L10.9838,31.49 Z" id="Fill-21" fill="#BABABA"></path>
                <path d="M16.2303,29.4749 C15.8313,29.4749 15.5663,29.8669 15.5433,30.4179 C15.9743,30.3939 16.5423,30.1949 16.5423,29.8029 C16.5423,29.6029 16.4223,29.4749 16.2303,29.4749 M17.7013,29.7869 C17.7013,30.9459 16.3903,31.1779 15.6063,31.2259 C15.6393,31.5859 15.9103,31.8819 16.3983,31.8819 C16.7823,31.8819 17.1343,31.7139 17.3903,31.5459 L17.7413,32.4259 C17.7013,32.4649 17.1023,32.8809 16.2063,32.8809 C14.7993,32.8809 14.2473,32.0339 14.2473,30.8179 C14.2473,29.6589 14.9353,28.5389 16.3023,28.5389 C17.1423,28.5389 17.7013,28.9479 17.7013,29.7869" id="Fill-22" fill="#BABABA"></path>
                <path d="M19.5751,32.7532 L18.2401,32.7532 L18.2401,29.4432 L18.1361,28.6592 L19.2231,28.6592 L19.3271,29.2272 C19.5431,28.7232 19.9431,28.5392 20.2861,28.5392 C20.4871,28.5392 20.7421,28.5872 20.9501,28.6912 L20.7341,29.8032 C20.5661,29.7152 20.3671,29.6672 20.1581,29.6672 C19.8151,29.6672 19.5831,29.8822 19.5751,30.2512 L19.5751,32.7532 Z" id="Fill-23" fill="#BABABA"></path>
                <path d="M24.6058,28.6595 C24.7658,29.1955 24.8778,29.9145 24.8778,30.4985 C24.8778,32.0495 24.1738,32.8575 22.8468,32.8575 C21.8078,32.8575 21.3198,32.3855 21.3198,31.4025 L21.3198,28.6595 L22.6628,28.6595 L22.6628,31.2425 C22.6628,31.6255 22.7028,31.8255 22.9988,31.8255 C23.4548,31.8255 23.5658,31.1945 23.5658,30.5385 C23.5658,29.9305 23.4308,29.2115 23.2938,28.6595 L24.6058,28.6595 Z" id="Fill-24" fill="#BABABA"></path>
                <path d="M25.544,32.7531 L26.887,32.7531 L26.887,28.6591 L25.544,28.6591 L25.544,32.7531 Z M26.215,26.8281 C26.639,26.8281 26.927,27.1241 26.927,27.4921 C26.927,27.8761 26.639,28.1551 26.215,28.1551 C25.776,28.1551 25.504,27.8761 25.504,27.4921 C25.504,27.1241 25.776,26.8281 26.215,26.8281 L26.215,26.8281 Z" id="Fill-25" fill="#BABABA"></path>
                <path d="M30.4379,31.4978 L30.9099,32.4018 C30.5419,32.6888 30.0379,32.8728 29.4069,32.8728 C28.2079,32.8728 27.4559,32.1458 27.4559,30.7538 C27.4559,29.1708 28.4709,28.5398 29.4309,28.5398 C30.0059,28.5398 30.5899,28.7308 30.9979,29.3708 L30.1819,30.0668 C29.9899,29.8028 29.7819,29.5948 29.4869,29.5948 C29.0469,29.5948 28.7989,29.9868 28.7989,30.6988 C28.7989,31.4098 29.0629,31.8178 29.5989,31.8178 C29.8779,31.8178 30.1099,31.7298 30.4379,31.4978" id="Fill-26" fill="#BABABA"></path>
                <path d="M31.375,32.7531 L32.718,32.7531 L32.718,28.6591 L31.375,28.6591 L31.375,32.7531 Z M32.047,26.8281 C32.471,26.8281 32.759,27.1241 32.759,27.4921 C32.759,27.8761 32.471,28.1551 32.047,28.1551 C31.607,28.1551 31.335,27.8761 31.335,27.4921 C31.335,27.1241 31.607,26.8281 32.047,26.8281 L32.047,26.8281 Z" id="Fill-27" fill="#BABABA"></path>
                <path d="M35.7264,30.7303 C35.7264,29.9153 35.5904,29.4993 35.1824,29.4993 C34.8074,29.4993 34.6394,29.9223 34.6394,30.5863 C34.6394,31.2743 34.7104,31.9053 35.1824,31.9053 C35.5744,31.9053 35.7264,31.5143 35.7264,30.7303 M35.2384,28.5393 C35.8784,28.5393 37.1094,28.7313 37.1094,30.6103 C37.1094,32.1133 36.2294,32.8813 35.1264,32.8813 C33.9834,32.8813 33.2794,32.1933 33.2794,30.7383 C33.2794,29.0593 34.3674,28.5393 35.2384,28.5393" id="Fill-28" fill="#BABABA"></path>
                <path d="M41.4462,29.5471 C41.3582,29.5151 41.2542,29.4911 41.1342,29.4911 C40.5102,29.4911 40.3832,30.2021 40.3832,30.8021 C40.3832,31.4181 40.5022,31.9221 40.9422,31.9221 C41.2542,31.9221 41.4462,31.6901 41.4462,31.4821 L41.4462,29.5471 Z M41.4462,28.5791 L41.4462,27.1961 L42.7732,27.1961 L42.7732,31.8811 L42.8612,32.7531 L41.7412,32.7531 L41.6702,32.3691 L41.6222,32.3691 C41.4142,32.7051 41.0862,32.8731 40.6302,32.8731 C39.2872,32.8731 39.0552,31.8251 39.0552,30.9061 C39.0552,29.5231 39.7992,28.5391 41.0622,28.5391 C41.2382,28.5391 41.3502,28.5551 41.4462,28.5791 L41.4462,28.5791 Z" id="Fill-29" fill="#BABABA"></path>
                <path d="M45.3661,29.4749 C44.9671,29.4749 44.7021,29.8669 44.6791,30.4179 C45.1101,30.3939 45.6781,30.1949 45.6781,29.8029 C45.6781,29.6029 45.5581,29.4749 45.3661,29.4749 M46.8371,29.7869 C46.8371,30.9459 45.5261,31.1779 44.7421,31.2259 C44.7751,31.5859 45.0461,31.8819 45.5341,31.8819 C45.9181,31.8819 46.2701,31.7139 46.5261,31.5459 L46.8771,32.4259 C46.8371,32.4649 46.2381,32.8809 45.3421,32.8809 C43.9351,32.8809 43.3831,32.0339 43.3831,30.8179 C43.3831,29.6589 44.0711,28.5389 45.4381,28.5389 C46.2781,28.5389 46.8371,28.9479 46.8371,29.7869" id="Fill-30" fill="#BABABA"></path>
                <path d="M50.6781,29.9226 C51.2061,29.9226 51.5421,29.7626 51.5421,29.2116 C51.5421,28.6676 51.2541,28.5156 50.7501,28.5156 L50.3661,28.5156 L50.3661,29.9226 L50.6781,29.9226 Z M50.3661,32.7536 L48.9911,32.7536 L48.9911,27.4366 L50.9421,27.4366 C52.1971,27.4366 52.9571,28.0196 52.9571,29.1236 C52.9571,30.3626 52.0531,30.9856 50.7741,30.9856 L50.3661,30.9856 L50.3661,32.7536 Z" id="Fill-31" fill="#BABABA"></path>
                <path d="M55.4623,29.7068 C55.8693,29.7068 56.1173,29.4988 56.1173,29.0598 C56.1173,28.6198 55.8543,28.5078 55.3583,28.5078 L54.9423,28.5078 L54.9423,29.7068 L55.4623,29.7068 Z M54.9423,32.7528 L53.5663,32.7528 L53.5663,27.4358 L55.4703,27.4358 C56.7013,27.4358 57.5253,27.8118 57.5253,28.9478 C57.5253,29.6188 57.1173,30.0908 56.7013,30.2988 C56.8453,30.3708 56.9733,30.5218 57.0533,30.7138 L57.9483,32.7528 L56.4783,32.7528 L55.7413,31.0658 C55.6533,30.8668 55.5253,30.7628 55.3173,30.7628 L54.9423,30.7628 L54.9423,32.7528 Z" id="Fill-32" fill="#BABABA"></path>
                <path d="M60.4779,31.7137 C61.2129,31.7137 61.4289,30.9387 61.4289,30.1307 C61.4289,29.4597 61.2529,28.4837 60.4459,28.4837 C59.7259,28.4837 59.4699,29.2587 59.4699,30.0507 C59.4699,30.7947 59.6299,31.7137 60.4779,31.7137 M60.4219,32.8487 C58.9349,32.8487 58.0549,31.9137 58.0549,30.1067 C58.0549,28.0597 59.3669,27.3397 60.5259,27.3397 C61.7569,27.3397 62.8289,28.0757 62.8289,30.1067 C62.8289,31.9217 61.8699,32.8487 60.4219,32.8487" id="Fill-33" fill="#BABABA"></path>
                <polygon id="Fill-34" fill="#BABABA" points="67.2855 27.4363 68.7005 27.4363 68.9795 32.7533 67.6695 32.7533 67.5165 29.9463 67.4925 29.9463 66.6375 32.2173 65.6785 32.2173 64.8305 30.0263 64.7985 30.0263 64.6465 32.7533 63.3435 32.7533 63.6465 27.4363 65.0785 27.4363 66.1735 30.4583 66.2055 30.4583"></polygon>
                <path d="M71.4301,29.9226 C71.9571,29.9226 72.2931,29.7626 72.2931,29.2116 C72.2931,28.6676 72.0051,28.5156 71.5021,28.5156 L71.1181,28.5156 L71.1181,29.9226 L71.4301,29.9226 Z M71.1181,32.7536 L69.7431,32.7536 L69.7431,27.4366 L71.6941,27.4366 C72.9491,27.4366 73.7081,28.0196 73.7081,29.1236 C73.7081,30.3626 72.8051,30.9856 71.5261,30.9856 L71.1181,30.9856 L71.1181,32.7536 Z" id="Fill-35" fill="#BABABA"></path>
                <polygon id="Fill-36" fill="#BABABA" points="74.3187 27.4363 77.7977 27.4363 77.7977 28.6353 75.6947 28.6353 75.6947 29.4433 77.5017 29.4433 77.5017 30.6423 75.6947 30.6423 75.6947 31.5543 77.8527 31.5543 77.8527 32.7533 74.3187 32.7533"></polygon>
                <path d="M80.4379,29.7068 C80.8459,29.7068 81.0939,29.4988 81.0939,29.0598 C81.0939,28.6198 80.8299,28.5078 80.3339,28.5078 L79.9179,28.5078 L79.9179,29.7068 L80.4379,29.7068 Z M79.9179,32.7528 L78.5429,32.7528 L78.5429,27.4358 L80.4459,27.4358 C81.6769,27.4358 82.5009,27.8118 82.5009,28.9478 C82.5009,29.6188 82.0929,30.0908 81.6769,30.2988 C81.8219,30.3708 81.9499,30.5218 82.0299,30.7138 L82.9249,32.7528 L81.4539,32.7528 L80.7179,31.0658 C80.6299,30.8668 80.5019,30.7628 80.2939,30.7628 L79.9179,30.7628 L79.9179,32.7528 Z" id="Fill-37" fill="#BABABA"></path>
                <path d="M85.8295,25.4051 C86.1085,25.5651 86.3815,25.8131 86.3815,26.0611 C86.3815,26.2611 86.2765,26.3891 85.9975,26.5561 C85.6215,26.7731 85.0375,27.0291 84.7335,27.1481 L84.4375,26.7481 L85.8295,25.4051 Z M84.5825,27.4361 L84.5825,30.9141 C84.5825,31.5221 84.8935,31.7061 85.3335,31.7061 C85.7495,31.7061 86.0455,31.4581 86.0455,30.9541 L86.0455,27.4361 L87.4205,27.4361 L87.4205,31.1141 C87.4205,32.1941 86.5575,32.8491 85.3015,32.8491 C83.9185,32.8491 83.2065,32.2891 83.2065,30.9941 L83.2065,27.4361 L84.5825,27.4361 Z" id="Fill-38" fill="#BABABA"></path>
            </g>
        </g>
    </g>
</svg>