<?xml version="1.0" encoding="UTF-8"?>
<svg width="19px" height="19px" viewBox="0 0 19 19" version="1.1" xmlns="http://www.w3.org/2000/svg" xmlns:xlink="http://www.w3.org/1999/xlink">
    <!-- Generator: sketchtool 54.1 (76490) - https://sketchapp.com -->
    <title>4C7EA950-162D-4955-8DDE-8226BA60A112</title>
    <desc>Created with sketchtool.</desc>
    <g id="Page-1" stroke="none" stroke-width="1" fill="none" fill-rule="evenodd" opacity="0.502765">
        <g id="versión-3" transform="translate(-1206.000000, -4011.000000)" fill="#FFFFFF" fill-rule="nonzero">
            <g id="facebook" transform="translate(1206.000000, 4011.000000)">
                <path d="M16.4310978,0 L2.55905379,0 C1.14580685,0 9.29095355e-05,1.14566748 9.29095355e-05,2.55896088 L9.29095355e-05,16.4310978 C9.29095355e-05,17.8443912 1.14576039,18.9900587 2.55905379,18.9900587 L9.40067971,18.9900587 L9.41233985,12.2040391 L7.64933496,12.2040391 C7.42022005,12.2040391 7.23426161,12.0187775 7.23337897,11.7896626 L7.22492421,9.60224694 C7.22404156,9.37187775 7.41055746,9.18466504 7.64092665,9.18466504 L9.40072616,9.18466504 L9.40072616,7.07106601 C9.40072616,4.61825428 10.8987531,3.28267971 13.0868191,3.28267971 L14.8822958,3.28267971 C15.1120147,3.28267971 15.2982983,3.46891687 15.2982983,3.69868215 L15.2982983,5.54312225 C15.2982983,5.77279462 15.112154,5.95898533 14.8825281,5.95912469 L13.7806675,5.9596357 C12.5907286,5.9596357 12.360313,6.52508313 12.360313,7.35490465 L12.360313,9.18471149 L14.9750196,9.18471149 C15.2241565,9.18471149 15.4174548,9.40225917 15.3880954,9.64967726 L15.1288313,11.8370929 C15.1040244,12.0464181 14.9265208,12.204132 14.7157555,12.204132 L12.3719731,12.204132 L12.360313,18.9901516 L16.4311907,18.9901516 C17.8444377,18.9901516 18.9901051,17.8444841 18.9901051,16.4312372 L18.9901051,2.55896088 C18.9900587,1.14566748 17.8443912,0 16.4310978,0 Z" id="Path"></path>
            </g>
        </g>
    </g>
</svg>