<?xml version="1.0" encoding="UTF-8"?>
<svg width="42px" height="42px" viewBox="0 0 42 42" version="1.1" xmlns="http://www.w3.org/2000/svg" xmlns:xlink="http://www.w3.org/1999/xlink">
    <!-- Generator: sketchtool 55.1 (78136) - https://sketchapp.com -->
    <title>F606949E-D51B-4623-88F8-822C5A9B2373</title>
    <desc>Created with sketchtool.</desc>
    <g id="Page-1" stroke="none" stroke-width="1" fill="none" fill-rule="evenodd">
        <g id="Desktop-HD" transform="translate(-600.000000, -605.000000)">
            <g id="Button" transform="translate(600.000000, 605.000000)">
                <rect fill="#55ACEE" x="0" y="0" width="42" height="42" rx="21"></rect>
                <g id="Twitter-Icon" transform="translate(13.000000, 15.000000)" fill="#FFFFFF">
                    <path d="M18,1.658 C17.338,1.939 16.626,2.129 15.879,2.215 C16.641,1.777 17.227,1.085 17.502,0.26 C16.788,0.665 15.999,0.959 15.157,1.117 C14.484,0.43 13.525,0.001 12.462,0.001 C10.423,0.001 8.77,1.583 8.77,3.535 C8.77,3.813 8.803,4.082 8.865,4.341 C5.797,4.194 3.076,2.786 1.255,0.648 C0.938,1.17 0.756,1.777 0.756,2.425 C0.756,3.651 1.408,4.733 2.398,5.366 C1.793,5.348 1.223,5.189 0.726,4.924 L0.726,4.969 C0.726,6.681 1.998,8.109 3.688,8.434 C3.378,8.515 3.052,8.558 2.715,8.558 C2.477,8.558 2.246,8.536 2.021,8.494 C2.49,9.898 3.854,10.92 5.47,10.949 C4.206,11.896 2.614,12.461 0.883,12.461 C0.586,12.461 0.291,12.445 0.002,12.412 C1.636,13.415 3.577,14 5.663,14 C12.454,14 16.168,8.615 16.168,3.945 C16.168,3.791 16.164,3.64 16.158,3.488 C16.879,2.99 17.505,2.367 18,1.659 L18,1.658 L18,1.658 Z" id="Shape"></path>
                </g>
            </g>
        </g>
    </g>
</svg>