<?xml version="1.0" encoding="UTF-8"?>
<svg width="42px" height="42px" viewBox="0 0 42 42" version="1.1" xmlns="http://www.w3.org/2000/svg" xmlns:xlink="http://www.w3.org/1999/xlink">
    <!-- Generator: sketchtool 55.1 (78136) - https://sketchapp.com -->
    <title>9B265241-03D5-4A07-9A90-30510753B062</title>
    <desc>Created with sketchtool.</desc>
    <g id="Page-1" stroke="none" stroke-width="1" fill="none" fill-rule="evenodd">
        <g id="Desktop-HD" transform="translate(-724.000000, -605.000000)">
            <g id="Button" transform="translate(724.000000, 605.000000)">
                <rect fill="#DF4A38" x="0" y="0" width="42" height="42" rx="21"></rect>
                <g id="G+" transform="translate(11.000000, 13.000000)" fill="#FFFFFF">
                    <path d="M21.35,8.07 L21.35,10.68 L19.422,10.68 L19.422,8.07 L16.772,8.07 L16.772,6.171 L19.422,6.171 L19.422,3.56 L21.35,3.56 L21.35,6.171 L24,6.171 L24,8.07 L21.35,8.07 L21.35,8.07 Z M7.615,14.999 C3.41,14.999 0.001,11.642 0.001,7.5 C0.001,3.358 3.41,0.001 7.615,0.001 C9.595,0.001 11.398,0.746 12.752,1.966 L10.508,4.13 C9.727,3.479 8.718,3.086 7.615,3.086 C5.14,3.086 3.133,5.062 3.133,7.5 C3.133,9.938 5.14,11.914 7.615,11.914 C9.53,11.914 11.164,10.731 11.806,9.066 L7.519,9.066 L7.519,5.934 L11.806,5.934 L15.037,5.934 L15.063,5.934 C15.172,6.439 15.229,6.963 15.229,7.5 C15.229,11.642 11.82,14.999 7.615,14.999 L7.615,14.999 Z" id="Shape"></path>
                </g>
            </g>
        </g>
    </g>
</svg>