<?xml version="1.0" encoding="UTF-8"?>
<svg width="50px" height="50px" viewBox="0 0 50 50" version="1.1" xmlns="http://www.w3.org/2000/svg" xmlns:xlink="http://www.w3.org/1999/xlink">
    <!-- Generator: Sketch 54.1 (76490) - https://sketchapp.com -->
    <title>Group 16</title>
    <desc>Created with Sketch.</desc>
    <g id="Page-1" stroke="none" stroke-width="1" fill="none" fill-rule="evenodd">
        <g id="versión-3" transform="translate(-1390.000000, -887.000000)">
            <g id="Group-16" transform="translate(1390.000000, 887.000000)">
                <path d="M0,5.00003191 C0,2.23859054 2.24553095,0 5.00003191,0 L50,0 L50,50 L0,50 L0,5.00003191 Z" id="Base" fill="#55ACEE"></path>
                <g id="Group-12" transform="translate(15.000000, 16.000000)" fill="#FFFFFF">
                    <path d="M18.4665968,4.62568716 C18.4743162,4.82615835 18.4768894,5.02848576 18.4768894,5.23174127 C18.4768894,11.426858 14.2320595,18.5714286 6.46974173,18.5714286 C4.08529496,18.5714286 1.86810254,17.7964589 -5.35444704e-14,16.4636967 C0.330220147,16.5082459 0.665586582,16.5286642 1.0060993,16.5286642 C2.98313161,16.5286642 4.80405985,15.7806097 6.24845135,14.521168 C4.40179167,14.486828 2.84246641,13.129935 2.30467931,11.2672235 C2.56285142,11.32291 2.82874297,11.3526094 3.10063852,11.3526094 C3.48403698,11.3526094 3.85628514,11.2941386 4.21309444,11.1874063 C2.2806633,10.7558364 0.82512151,8.86064111 0.82512151,6.59141858 L0.82512151,6.5320197 C1.39464405,6.88098808 2.0465072,7.09352467 2.73868293,7.11765546 C1.60478414,6.27493396 0.859430096,4.84100807 0.859430096,3.21589205 C0.859430096,2.35553652 1.06699705,1.55179553 1.43238349,0.857571214 C3.51319928,3.69479546 6.62413037,5.55936318 10.1313256,5.75797815 C10.0592776,5.41457843 10.0223959,5.05354466 10.0223959,4.68787035 C10.0223959,2.09845077 11.9119413,8.90716072e-14 14.2432098,8.90716072e-14 C15.456876,8.90716072e-14 16.5530354,0.569857928 17.3224054,1.48033126 C18.285619,1.270579 19.1879348,0.880773899 20.0044792,0.343399729 C19.6879825,1.43578211 19.0198227,2.35553652 18.1466692,2.93467552 C19.000953,2.82515885 19.8157819,2.57178554 20.5714286,2.19868637 C20.0044792,3.13885914 19.2908606,3.96301849 18.4665968,4.62568716 L18.4665968,4.62568716 Z" id="Twitter-Icon"></path>
                </g>
            </g>
        </g>
    </g>
</svg>