<?xml version="1.0" encoding="UTF-8"?>
<svg width="166px" height="42px" viewBox="0 0 166 42" version="1.1" xmlns="http://www.w3.org/2000/svg" xmlns:xlink="http://www.w3.org/1999/xlink">
    <!-- Generator: sketchtool 55.1 (78136) - https://sketchapp.com -->
    <title>F152A117-91AB-4536-BEF9-C2E304FDFC95</title>
    <desc>Created with sketchtool.</desc>
    <g id="Page-1" stroke="none" stroke-width="1" fill="none" fill-rule="evenodd">
        <g id="Desktop-HD" transform="translate(-600.000000, -605.000000)">
            <g id="Socials" transform="translate(600.000000, 605.000000)">
                <g id="Button">
                    <rect fill="#55ACEE" x="0" y="0" width="42" height="42" rx="21"></rect>
                    <g id="Twitter-Icon" transform="translate(13.000000, 15.000000)" fill="#FFFFFF">
                        <path d="M18,1.658 C17.338,1.939 16.626,2.129 15.879,2.215 C16.641,1.777 17.227,1.085 17.502,0.26 C16.788,0.665 15.999,0.959 15.157,1.117 C14.484,0.43 13.525,0.001 12.462,0.001 C10.423,0.001 8.77,1.583 8.77,3.535 C8.77,3.813 8.803,4.082 8.865,4.341 C5.797,4.194 3.076,2.786 1.255,0.648 C0.938,1.17 0.756,1.777 0.756,2.425 C0.756,3.651 1.408,4.733 2.398,5.366 C1.793,5.348 1.223,5.189 0.726,4.924 L0.726,4.969 C0.726,6.681 1.998,8.109 3.688,8.434 C3.378,8.515 3.052,8.558 2.715,8.558 C2.477,8.558 2.246,8.536 2.021,8.494 C2.49,9.898 3.854,10.92 5.47,10.949 C4.206,11.896 2.614,12.461 0.883,12.461 C0.586,12.461 0.291,12.445 0.002,12.412 C1.636,13.415 3.577,14 5.663,14 C12.454,14 16.168,8.615 16.168,3.945 C16.168,3.791 16.164,3.64 16.158,3.488 C16.879,2.99 17.505,2.367 18,1.659 L18,1.658 L18,1.658 Z" id="Shape"></path>
                    </g>
                </g>
                <g id="Button" transform="translate(62.000000, 0.000000)">
                    <rect fill="#3A5898" x="0" y="0" width="42" height="42" rx="21"></rect>
                    <g id="Facebook-Icon" transform="translate(16.000000, 12.000000)" fill="#FFFFFF">
                        <path d="M6.985,17.992 L2.987,17.992 L2.987,9.496 L0.989,9.496 L0.989,6.222 L2.987,6.222 L2.987,4.258 C2.987,1.589 4.115,0 7.32,0 L9.988,0 L9.988,3.274 L8.321,3.274 C7.073,3.274 6.99,3.731 6.99,4.585 L6.985,6.222 L10.007,6.222 L9.653,9.496 L6.985,9.496 L6.985,17.992 L6.985,17.992 Z" id="Shape"></path>
                    </g>
                </g>
                <g id="Button" transform="translate(124.000000, 0.000000)">
                    <rect fill="#DF4A38" x="0" y="0" width="42" height="42" rx="21"></rect>
                    <g id="G+" transform="translate(11.000000, 13.000000)" fill="#FFFFFF">
                        <path d="M21.35,8.07 L21.35,10.68 L19.422,10.68 L19.422,8.07 L16.772,8.07 L16.772,6.171 L19.422,6.171 L19.422,3.56 L21.35,3.56 L21.35,6.171 L24,6.171 L24,8.07 L21.35,8.07 L21.35,8.07 Z M7.615,14.999 C3.41,14.999 0.001,11.642 0.001,7.5 C0.001,3.358 3.41,0.001 7.615,0.001 C9.595,0.001 11.398,0.746 12.752,1.966 L10.508,4.13 C9.727,3.479 8.718,3.086 7.615,3.086 C5.14,3.086 3.133,5.062 3.133,7.5 C3.133,9.938 5.14,11.914 7.615,11.914 C9.53,11.914 11.164,10.731 11.806,9.066 L7.519,9.066 L7.519,5.934 L11.806,5.934 L15.037,5.934 L15.063,5.934 C15.172,6.439 15.229,6.963 15.229,7.5 C15.229,11.642 11.82,14.999 7.615,14.999 L7.615,14.999 Z" id="Shape"></path>
                    </g>
                </g>
            </g>
        </g>
    </g>
</svg>