<?xml version="1.0" encoding="UTF-8"?>
<svg width="20px" height="17px" viewBox="0 0 20 17" version="1.1" xmlns="http://www.w3.org/2000/svg" xmlns:xlink="http://www.w3.org/1999/xlink">
    <!-- Generator: sketchtool 54.1 (76490) - https://sketchapp.com -->
    <title>43BF76D5-E43F-47AB-BBF0-4F1E82B7B37B</title>
    <desc>Created with sketchtool.</desc>
    <defs>
        <path d="M19.2,3.59695966 C18.4935631,3.91025275 17.7343838,4.12199422 16.9375617,4.21722521 C17.7508877,3.72969311 18.3754373,2.95773218 18.6695578,2.03793848 C17.9084824,2.48930246 17.0654494,2.81713303 16.1681993,2.99383006 C15.4496126,2.22826 14.4258795,1.74985771 13.2929398,1.74985771 C11.1174454,1.74985771 9.3537057,3.5135272 9.3537057,5.68888108 C9.3537057,5.99760928 9.38860965,6.29826109 9.4557489,6.58655254 C6.18193789,6.42228611 3.27942939,4.85406489 1.33660485,2.47090237 C0.997537583,3.05268225 0.803283225,3.72934197 0.803283225,4.45122938 C0.803283225,5.81782216 1.49876441,7.02351952 2.55571601,7.72988624 C1.90995721,7.70944951 1.30261385,7.53226087 0.771469328,7.2372274 C0.771188415,7.25366107 0.771188415,7.27016497 0.771188415,7.28673909 C0.771188415,9.19529169 2.12900252,10.7873909 3.93101723,11.1492125 C3.60044771,11.2392465 3.25246132,11.2873536 2.89316801,11.2873536 C2.63935916,11.2873536 2.39257325,11.2627031 2.15210798,11.2167029 C2.6533348,12.7816936 4.1080654,13.9205326 5.83177439,13.9523465 C4.48365193,15.0088064 2.78515527,15.638553 0.939668603,15.638553 C0.621740371,15.638553 0.308166356,15.6199422 0,15.5835634 C1.74323275,16.7011931 3.81380446,17.3532726 6.03831889,17.3532726 C13.2837397,17.3532726 17.2457983,11.3509814 17.2457983,6.14565273 C17.2457983,5.97485497 17.2420059,5.80497019 17.2344212,5.63606862 C18.0039943,5.08069498 18.6718754,4.3868993 19.2,3.59695966" id="path-1"></path>
    </defs>
    <g id="Page-1" stroke="none" stroke-width="1" fill="none" fill-rule="evenodd" opacity="0.502765">
        <g id="versión-3" transform="translate(-1271.000000, -4012.000000)">
            <g id="Icons/twitter" transform="translate(1271.000000, 4011.000000)">
                <mask id="mask-2" fill="white">
                    <use xlink:href="#path-1"></use>
                </mask>
                <use id="Shape" fill="#000000" fill-rule="nonzero" xlink:href="#path-1"></use>
                <g id="Color" stroke-width="1" fill-rule="evenodd" mask="url(#mask-2)" fill="#FFFFFF">
                    <rect id="Choose-color..." x="0" y="0" width="19.2" height="19.2"></rect>
                </g>
            </g>
        </g>
    </g>
</svg>