<?xml version="1.0" encoding="UTF-8"?>
<svg width="20px" height="20px" viewBox="0 0 20 20" version="1.1" xmlns="http://www.w3.org/2000/svg" xmlns:xlink="http://www.w3.org/1999/xlink">
    <!-- Generator: sketchtool 54.1 (76490) - https://sketchapp.com -->
    <title>7A78FACD-D71F-47A5-8A11-FA4A6F49BAF5</title>
    <desc>Created with sketchtool.</desc>
    <defs>
        <path d="M9.6,1.6 C12.2055808,1.6 12.5141864,1.60991628 13.5431557,1.65686368 C14.4945766,1.70028616 15.0112691,1.85925656 15.3551627,1.99285524 C15.8106145,2.16987638 16.1357214,2.3813721 16.4771746,2.72282536 C16.8186279,3.06427862 17.0301236,3.38938551 17.207106,3.84483728 C17.3407434,4.18873088 17.4997138,4.70542345 17.5431363,5.65680559 C17.5900837,6.68581362 17.6,6.99441919 17.6,9.6 C17.6,12.2055808 17.5900837,12.5141864 17.5431363,13.5431557 C17.4997138,14.4945766 17.3407434,15.0112691 17.207106,15.3551627 C17.0301236,15.8106145 16.8186279,16.1357214 16.4771746,16.4771746 C16.1357214,16.8186279 15.8106145,17.0301236 15.3551627,17.207106 C15.0112691,17.3407434 14.4945766,17.4997139 13.5431557,17.5431363 C12.5143413,17.5900837 12.2057358,17.6 9.6,17.6 C6.99426424,17.6 6.68565867,17.5900837 5.65684432,17.5431363 C4.70542345,17.4997139 4.18873088,17.3407434 3.84487602,17.207106 C3.38938551,17.0301236 3.06427862,16.8186279 2.72282536,16.4771746 C2.3813721,16.1357214 2.16987638,15.8106145 1.99289397,15.3551627 C1.85925657,15.0112691 1.70028616,14.4945766 1.65686368,13.5431944 C1.60991628,12.5141864 1.6,12.2055808 1.6,9.6 C1.6,6.99441919 1.60991628,6.68581362 1.65686368,5.65684432 C1.70028616,4.70542345 1.85925657,4.18873088 1.99289397,3.84483728 C2.16987638,3.38938551 2.3813721,3.06427862 2.72282536,2.72282536 C3.06427862,2.3813721 3.38938551,2.16987638 3.84487602,1.99285524 C4.18873088,1.85925656 4.70542345,1.70028616 5.65680558,1.65686368 C6.68581362,1.60991628 6.99441919,1.6 9.6,1.6 L9.6,1.6 Z M9.59998095,0 C6.99275843,0 6.66587435,0.0110511054 5.64193228,0.0577706062 C4.6200861,0.104413892 3.92226596,0.266674606 3.31159711,0.504006621 C2.68031225,0.749341161 2.14494335,1.0775971 1.61125117,1.61128928 C1.07755899,2.14498145 0.749303054,2.68035034 0.503968514,3.31163522 C0.266636498,3.92230406 0.104375786,4.62012421 0.057732499,5.64197039 C0.0110129981,6.66587435 0,6.99279654 0,9.60001905 C0,12.2072416 0.0110129981,12.5341637 0.057732499,13.5580677 C0.104375786,14.5799139 0.266636498,15.2777341 0.503968514,15.8884029 C0.749303054,16.5196496 1.07755899,17.0550566 1.61125117,17.5887488 C2.14494335,18.122441 2.68031225,18.450697 3.31159711,18.6960315 C3.92226596,18.9333635 4.6200861,19.0956242 5.64193228,19.1422675 C6.66587435,19.188987 6.99275843,19.2 9.59998095,19.2 C12.2072035,19.2 12.5341256,19.188987 13.5580296,19.1422675 C14.5798758,19.0956242 15.277696,18.9333635 15.8883648,18.6960315 C16.5196496,18.450697 17.0550185,18.122441 17.5887107,17.5887488 C18.1224029,17.0550566 18.4506589,16.5196877 18.6959934,15.8884029 C18.9333254,15.2777341 19.0955861,14.5799139 19.1422294,13.5580677 C19.1889489,12.5341637 19.2,12.2072416 19.2,9.60001905 C19.2,6.99279654 19.1889489,6.66587435 19.1422294,5.64197039 C19.0955861,4.62012421 18.9333254,3.92230406 18.6959934,3.31163522 C18.4506589,2.68035034 18.1224029,2.14498145 17.5887107,1.61128928 C17.0550185,1.0775971 16.5196496,0.749341161 15.8883648,0.504006621 C15.277696,0.266674606 14.5798758,0.104413892 13.5580296,0.0577706062 C12.5341256,0.0110511054 12.2072035,0 9.59998095,0 Z M9.59999999,4.8 C6.94904494,4.8 4.8,6.94904494 4.8,9.59999998 C4.8,12.250955 6.94904494,14.4 9.59999999,14.4 C12.250955,14.4 14.4,12.250955 14.4,9.59999998 C14.4,6.94904494 12.250955,4.8 9.59999999,4.8 Z M9.59999999,12.8 C7.83271015,12.8 6.4,11.3672898 6.4,9.59999999 C6.4,7.83271014 7.83271015,6.4 9.59999999,6.4 C11.3672898,6.4 12.8,7.83271014 12.8,9.59999999 C12.8,11.3672898 11.3672898,12.8 9.59999999,12.8 Z M16,4.39998015 C16,5.06272804 15.4627677,5.6 14.8000198,5.6 C14.1372719,5.6 13.6,5.06272804 13.6,4.39998015 C13.6,3.73723226 14.1372719,3.2 14.8000198,3.2 C15.4627677,3.2 16,3.73723226 16,4.39998015 Z" id="path-1"></path>
    </defs>
    <g id="Page-1" stroke="none" stroke-width="1" fill="none" fill-rule="evenodd" opacity="0.502765">
        <g id="versión-3" transform="translate(-1238.000000, -4011.000000)">
            <g id="Icons/instagram" transform="translate(1238.000000, 4011.000000)">
                <mask id="mask-2" fill="white">
                    <use xlink:href="#path-1"></use>
                </mask>
                <use id="Shape" fill="#0A0A08" fill-rule="nonzero" xlink:href="#path-1"></use>
                <g id="Color" stroke-width="1" fill-rule="evenodd" mask="url(#mask-2)" fill="#FFFFFF">
                    <rect id="Choose-color..." x="0" y="0" width="19.2" height="19.2"></rect>
                </g>
            </g>
        </g>
    </g>
</svg>