<?xml version="1.0" encoding="UTF-8"?>
<svg width="19px" height="19px" viewBox="0 0 19 19" version="1.1" xmlns="http://www.w3.org/2000/svg" xmlns:xlink="http://www.w3.org/1999/xlink">
    <!-- Generator: Sketch 55.2 (78181) - https://sketchapp.com -->
    <title>Rectangle 2</title>
    <desc>Created with Sketch.</desc>
    <g id="Symbols" stroke="none" stroke-width="1" fill="none" fill-rule="evenodd">
        <g id="footer" transform="translate(-1245.000000, -356.000000)" fill="#FFFFFF">
            <path d="M1247.5,356 L1261.5,356 C1262.88071,356 1264,357.119288 1264,358.5 L1264,372.5 C1264,373.880712 1262.88071,375 1261.5,375 L1247.5,375 C1246.11929,375 1245,373.880712 1245,372.5 L1245,358.5 C1245,357.119288 1246.11929,356 1247.5,356 Z M1250.87941,372.405853 L1250.87941,363.480777 C1250.87941,363.204531 1250.65548,362.98061 1250.37924,362.98061 L1248.25014,362.98061 C1247.9739,362.98061 1247.74998,363.204531 1247.74998,363.480777 L1247.74998,372.405853 C1247.74998,372.682099 1247.9739,372.906021 1248.25014,372.906021 L1250.37924,372.906021 C1250.65548,372.906021 1250.87941,372.682099 1250.87941,372.405853 Z M1249.31469,362.139288 C1250.43181,362.139288 1251.33735,361.233704 1251.33735,360.116634 C1251.33735,358.999563 1250.43176,358.093979 1249.31469,358.093979 C1248.19762,358.093979 1247.29204,358.999563 1247.29204,360.116634 C1247.29204,361.233704 1248.19762,362.139288 1249.31469,362.139288 Z M1262.006,372.446141 L1262.006,368.126576 C1262.006,366.24866 1262.02693,362.830848 1258.36859,362.830848 C1256.71653,362.830848 1255.94062,363.435615 1255.41852,364.219141 L1255.41852,363.44049 C1255.41852,363.186526 1255.2126,362.98061 1254.95864,362.98061 L1252.74897,362.98061 C1252.495,362.98061 1252.28909,363.186526 1252.28909,363.44049 L1252.28909,372.446141 C1252.28909,372.700105 1252.495,372.906021 1252.74897,372.906021 L1254.95864,372.906021 C1255.21265,372.906021 1255.41852,372.700105 1255.41852,372.446141 L1255.41852,367.617605 C1255.47586,366.968819 1255.76146,365.523128 1257.1695,365.523128 C1258.98475,365.523128 1258.80156,367.635262 1258.80156,368.259775 L1258.80156,372.446141 C1258.80156,372.700105 1259.00748,372.906021 1259.26144,372.906021 L1261.54612,372.906021 C1261.80008,372.906021 1262.006,372.700105 1262.006,372.446141 Z" id="Rectangle-2"></path>
        </g>
    </g>
</svg>