<?xml version="1.0" encoding="UTF-8"?>
<svg width="126px" height="55px" viewBox="0 0 126 55" version="1.1" xmlns="http://www.w3.org/2000/svg" xmlns:xlink="http://www.w3.org/1999/xlink">
    <!-- Generator: Sketch 54.1 (76490) - https://sketchapp.com -->
    <title>Group 18</title>
    <desc>Created with Sketch.</desc>
    <defs>
        <path d="M10,0 L100,0 C105.522847,-1.01453063e-15 110,4.4771525 110,10 L110,39 L10,39 C4.4771525,39 6.76353751e-16,34.5228475 0,29 L0,10 C-6.76353751e-16,4.4771525 4.4771525,1.01453063e-15 10,0 Z" id="path-1"></path>
        <filter x="-11.8%" y="-28.2%" width="123.6%" height="166.7%" filterUnits="objectBoundingBox" id="filter-2">
            <feMorphology radius="1" operator="dilate" in="SourceAlpha" result="shadowSpreadOuter1"></feMorphology>
            <feOffset dx="0" dy="2" in="shadowSpreadOuter1" result="shadowOffsetOuter1"></feOffset>
            <feGaussianBlur stdDeviation="3" in="shadowOffsetOuter1" result="shadowBlurOuter1"></feGaussianBlur>
            <feColorMatrix values="0 0 0 0 0.901960784   0 0 0 0 0.207843137   0 0 0 0 0.156862745  0 0 0 0.395487325 0" type="matrix" in="shadowBlurOuter1"></feColorMatrix>
        </filter>
    </defs>
    <g id="Page-1" stroke="none" stroke-width="1" fill="none" fill-rule="evenodd">
        <g id="versión-3" transform="translate(-1193.000000, -579.000000)">
            <g id="Group-18" transform="translate(1201.000000, 585.000000)">
                <g id="Rectangle">
                    <use fill="black" fill-opacity="1" filter="url(#filter-2)" xlink:href="#path-1"></use>
                    <use fill="#FFFFFF" fill-rule="evenodd" xlink:href="#path-1"></use>
                </g>
                <path d="M45.1525,8.68 C46.0278377,8.68 46.7319973,8.89883114 47.265,9.3365 C47.7980027,9.77416885 48.1641657,10.3439965 48.3635,11.046 L47.2585,11.267 C47.0851658,10.7556641 46.8143352,10.3505015 46.446,10.0515 C46.0776648,9.7524985 45.6465025,9.603 45.1525,9.603 C44.4678299,9.603 43.9001689,9.88899714 43.4495,10.461 C42.9988311,11.0330029 42.7735,11.8281616 42.7735,12.8465 C42.7735,13.8648384 42.974998,14.6816636 43.378,15.297 C43.781002,15.9123364 44.3724961,16.22 45.1525,16.22 C45.8025033,16.22 46.3159981,16.048835 46.693,15.7065 C47.0700019,15.364165 47.2585,14.9113362 47.2585,14.348 L48.3635,14.348 C48.3635,15.2060043 48.0710029,15.8863308 47.486,16.389 C46.9009971,16.8916692 46.0993384,17.143 45.081,17.143 C44.0626616,17.143 43.2393365,16.7530039 42.611,15.973 C41.9826635,15.1929961 41.6685,14.1486732 41.6685,12.84 C41.6685,11.5313268 41.9934967,10.510837 42.6435,9.7785 C43.2935033,9.04616301 44.1298282,8.68 45.1525,8.68 Z M51.3145,11.93 C51.7305021,11.063329 52.4194952,10.63 53.3815,10.63 C54.1181703,10.63 54.6923313,10.8726642 55.104,11.358 C55.5156687,11.8433358 55.7215,12.5063291 55.7215,13.347 L55.7215,17 L54.7075,17 L54.7075,13.347 C54.7075,12.748997 54.5666681,12.2983348 54.285,11.995 C54.0033319,11.6916651 53.5981693,11.54 53.0695,11.54 C52.5408307,11.54 52.1161683,11.7631644 51.7955,12.2095 C51.4748317,12.6558356 51.3145,13.2733294 51.3145,14.062 L51.3145,17 L50.2875,17 L50.2875,8.147 L51.3145,8.147 L51.3145,11.93 Z M61.9875,12.97 C61.9875,12.4066639 61.8705012,12.0036679 61.6365,11.761 C61.4024988,11.5183321 61.0623356,11.397 60.616,11.397 C60.1696644,11.397 59.8100014,11.4858324 59.537,11.6635 C59.2639986,11.8411676 59.1275,12.1206648 59.1275,12.502 L57.9965,12.502 C57.9965,11.5486619 58.5078282,10.9593345 59.5305,10.734 C59.8425016,10.6646663 60.1804982,10.63 60.5445,10.63 C61.3158372,10.63 61.9181645,10.824998 62.3515,11.215 C62.7848355,11.605002 63.0015,12.1986627 63.0015,12.996 L63.0015,17 L62.1175,17 L62.0135,15.96 C61.6321648,16.7486706 60.9431716,17.143 59.9465,17.143 C59.2791633,17.143 58.744002,16.9566685 58.341,16.584 C57.937998,16.2113315 57.7365,15.7476694 57.7365,15.193 C57.7365,14.6383306 57.9596644,14.2050016 58.406,13.893 C58.8523356,13.5809984 59.4091633,13.425 60.0765,13.425 C60.7438367,13.425 61.3808303,13.5376655 61.9875,13.763 L61.9875,12.97 Z M61.9875,14.413 C61.3721636,14.2396658 60.8348356,14.153 60.3755,14.153 C59.9161644,14.153 59.5435014,14.2353325 59.2575,14.4 C58.9714986,14.5646675 58.8285,14.8246649 58.8285,15.18 C58.8285,15.9600039 59.2704956,16.35 60.1545,16.35 C60.6571692,16.35 61.0883315,16.1701685 61.448,15.8105 C61.8076685,15.4508315 61.9875,14.9850029 61.9875,14.413 Z M68.6695,16.818 C67.9241629,17.1646684 67.2438364,17.2383343 66.6285,17.039 C66.1864978,16.9003326 65.8745009,16.6100022 65.6925,16.168 C65.5971662,15.9513323 65.5495,15.6913348 65.5495,15.388 L65.5495,11.566 L64.5485,11.566 L64.5485,10.786 L65.5495,10.786 L65.5495,9.057 L66.5635,9.057 L66.5635,10.786 L68.5135,10.786 L68.5135,11.566 L66.5635,11.566 L66.5635,15.375 C66.5635,16.0076698 66.8581637,16.324 67.4475,16.324 C67.7681683,16.324 68.1278313,16.2460008 68.5265,16.09 L68.6695,16.818 Z M23.462,21.823 L28.493,21.823 L28.493,22.707 L24.489,22.707 L24.489,25.45 L28.259,25.45 L28.259,26.321 L24.489,26.321 L24.489,29.103 L28.493,29.103 L28.493,30 L23.462,30 L23.462,21.823 Z M35.773,30 L34.525,30 L32.744,27.647 L31.054,30 L29.806,30 L32.159,26.893 L29.806,23.773 L31.054,23.773 L32.835,26.113 L34.538,23.773 L35.786,23.773 L33.407,26.893 L35.773,30 Z M38.399,24.735 C38.8063354,23.9983297 39.4151626,23.63 40.2255,23.63 C41.0358374,23.63 41.7118306,23.928997 42.2535,24.527 C42.7951694,25.125003 43.066,25.9136618 43.066,26.893 C43.066,27.8723382 42.7930027,28.6588304 42.247,29.2525 C41.7009973,29.8461696 41.0293373,30.143 40.232,30.143 C39.4346627,30.143 38.8453352,29.844003 38.464,29.246 L38.464,33.055 L37.437,33.055 L37.437,23.786 L38.282,23.786 L38.399,24.735 Z M40.18,29.233 C40.6653358,29.233 41.0921648,29.0250021 41.4605,28.609 C41.8288352,28.1929979 42.013,27.6231703 42.013,26.8995 C42.013,26.1758297 41.8375018,25.6016688 41.4865,25.177 C41.1354982,24.7523312 40.7086692,24.54 40.206,24.54 C39.7033308,24.54 39.2916683,24.6981651 38.971,25.0145 C38.6503317,25.3308349 38.4813334,25.757664 38.464,26.295 L38.464,27.478 C38.464,28.0240027 38.628665,28.4529984 38.958,28.765 C39.287335,29.0770016 39.6946642,29.233 40.18,29.233 Z M47.395,23.63 C48.261671,23.63 48.9614973,23.9116638 49.4945,24.475 C50.0275027,25.0383361 50.294,25.8443281 50.294,26.893 C50.294,27.9330052 50.0275027,28.7346638 49.4945,29.298 C48.9614973,29.8613361 48.261671,30.143 47.395,30.143 C46.528329,30.143 45.8285027,29.8613361 45.2955,29.298 C44.7624973,28.7346638 44.496,27.9330052 44.496,26.893 C44.496,25.8443281 44.7624973,25.0383361 45.2955,24.475 C45.8285027,23.9116638 46.528329,23.63 47.395,23.63 Z M49.254,26.893 C49.254,26.1476629 49.0980016,25.5648354 48.786,25.1445 C48.4739984,24.7241646 48.0168363,24.514 47.4145,24.514 C46.8121637,24.514 46.3506683,24.7241646 46.03,25.1445 C45.7093317,25.5648354 45.549,26.1454963 45.549,26.8865 C45.549,27.6275037 45.7006651,28.2081646 46.004,28.6285 C46.3073349,29.0488354 46.7601637,29.259 47.3625,29.259 C47.9648363,29.259 48.430665,29.0488354 48.76,28.6285 C49.089335,28.2081646 49.254,27.6296703 49.254,26.893 Z M54.792,24.657 C53.8126618,24.657 53.3056668,25.4283256 53.271,26.971 L53.271,30 L52.244,30 L52.244,23.773 L53.271,23.773 L53.271,24.969 C53.5830016,24.102329 54.1333294,23.669 54.922,23.669 C55.1733346,23.669 55.4116655,23.7079996 55.637,23.786 L55.585,24.787 C55.3249987,24.7003329 55.060668,24.657 54.792,24.657 Z M60.46,29.818 C59.7146629,30.1646684 59.0343364,30.2383343 58.419,30.039 C57.9769978,29.9003326 57.6650009,29.6100022 57.483,29.168 C57.3876662,28.9513323 57.34,28.6913349 57.34,28.388 L57.34,24.566 L56.339,24.566 L56.339,23.786 L57.34,23.786 L57.34,22.057 L58.354,22.057 L58.354,23.786 L60.304,23.786 L60.304,24.566 L58.354,24.566 L58.354,28.375 C58.354,29.0076698 58.6486637,29.324 59.238,29.324 C59.5586683,29.324 59.9183313,29.2460008 60.317,29.09 L60.46,29.818 Z M65.946,25.97 C65.946,25.4066639 65.8290012,25.0036679 65.595,24.761 C65.3609988,24.5183321 65.0208356,24.397 64.5745,24.397 C64.1281644,24.397 63.7685014,24.4858324 63.4955,24.6635 C63.2224986,24.8411676 63.086,25.1206648 63.086,25.502 L61.955,25.502 C61.955,24.5486619 62.4663282,23.9593345 63.489,23.734 C63.8010016,23.6646663 64.1389982,23.63 64.503,23.63 C65.2743372,23.63 65.8766645,23.824998 66.31,24.215 C66.7433355,24.605002 66.96,25.1986627 66.96,25.996 L66.96,30 L66.076,30 L65.972,28.96 C65.5906648,29.7486706 64.9016716,30.143 63.905,30.143 C63.2376633,30.143 62.702502,29.9566685 62.2995,29.584 C61.896498,29.2113315 61.695,28.7476694 61.695,28.193 C61.695,27.6383306 61.9181644,27.2050016 62.3645,26.893 C62.8108356,26.5809984 63.3676633,26.425 64.035,26.425 C64.7023367,26.425 65.3393303,26.5376655 65.946,26.763 L65.946,25.97 Z M65.946,27.413 C65.3306636,27.2396658 64.7933356,27.153 64.334,27.153 C63.8746644,27.153 63.5020014,27.2353325 63.216,27.4 C62.9299986,27.5646675 62.787,27.8246649 62.787,28.18 C62.787,28.9600039 63.2289956,29.35 64.113,29.35 C64.6156692,29.35 65.0468315,29.1701685 65.4065,28.8105 C65.7661685,28.4508315 65.946,27.9850029 65.946,27.413 Z M73.447,24.709 L73.447,21.147 L74.461,21.147 L74.461,30 L73.629,30 L73.499,28.96 C73.2996657,29.3500019 73.035335,29.6446657 72.706,29.844 C72.376665,30.0433343 72.017002,30.143 71.627,30.143 C70.8383294,30.143 70.1775027,29.8396697 69.6445,29.233 C69.1114973,28.6263303 68.845,27.8355049 68.845,26.8605 C68.845,25.8854951 69.107164,25.1033363 69.6315,24.514 C70.155836,23.9246637 70.8188293,23.63 71.6205,23.63 C72.4221707,23.63 73.0309979,23.9896631 73.447,24.709 Z M71.679,24.54 C71.1763308,24.54 70.753835,24.7523312 70.4115,25.177 C70.069165,25.6016688 69.898,26.1693298 69.898,26.88 C69.898,27.5906702 70.0713316,28.1604979 70.418,28.5895 C70.7646684,29.0185021 71.1806642,29.233 71.666,29.233 C72.1513358,29.233 72.565165,29.0705016 72.9075,28.7455 C73.249835,28.4204984 73.4296666,27.9850027 73.447,27.439 L73.447,26.425 C73.447,25.8443304 73.2780017,25.3850017 72.94,25.047 C72.6019983,24.7089983 72.1816692,24.54 71.679,24.54 Z M79.336,23.63 C80.202671,23.63 80.9024973,23.9116638 81.4355,24.475 C81.9685027,25.0383361 82.235,25.8443281 82.235,26.893 C82.235,27.9330052 81.9685027,28.7346638 81.4355,29.298 C80.9024973,29.8613361 80.202671,30.143 79.336,30.143 C78.469329,30.143 77.7695027,29.8613361 77.2365,29.298 C76.7034973,28.7346638 76.437,27.9330052 76.437,26.893 C76.437,25.8443281 76.7034973,25.0383361 77.2365,24.475 C77.7695027,23.9116638 78.469329,23.63 79.336,23.63 Z M81.195,26.893 C81.195,26.1476629 81.0390016,25.5648354 80.727,25.1445 C80.4149984,24.7241646 79.9578363,24.514 79.3555,24.514 C78.7531637,24.514 78.2916683,24.7241646 77.971,25.1445 C77.6503317,25.5648354 77.49,26.1454963 77.49,26.8865 C77.49,27.6275037 77.6416652,28.2081646 77.945,28.6285 C78.2483349,29.0488354 78.7011637,29.259 79.3035,29.259 C79.9058363,29.259 80.371665,29.0488354 80.701,28.6285 C81.030335,28.2081646 81.195,27.6296703 81.195,26.893 Z M86.733,24.657 C85.7536618,24.657 85.2466668,25.4283256 85.212,26.971 L85.212,30 L84.185,30 L84.185,23.773 L85.212,23.773 L85.212,24.969 C85.5240016,24.102329 86.0743294,23.669 86.863,23.669 C87.1143346,23.669 87.3526655,23.7079996 87.578,23.786 L87.526,24.787 C87.2659987,24.7003329 87.001668,24.657 86.733,24.657 Z" id="ChatExportador" fill="#4A4A4A" fill-rule="nonzero"></path>
            </g>
        </g>
    </g>
</svg>