<?xml version="1.0" encoding="UTF-8"?>
<svg width="47px" height="45px" viewBox="0 0 47 45" version="1.1" xmlns="http://www.w3.org/2000/svg" xmlns:xlink="http://www.w3.org/1999/xlink">
    <!-- Generator: sketchtool 54.1 (76490) - https://sketchapp.com -->
    <title>DDCDED23-B984-4745-8C1A-4669BB46C0A2</title>
    <desc>Created with sketchtool.</desc>
    <g id="Page-1" stroke="none" stroke-width="1" fill="none" fill-rule="evenodd">
        <g id="versión-3" transform="translate(-697.000000, -2160.000000)">
            <g id="Group-6" transform="translate(697.000000, 2160.000000)">
                <path d="M16.4360119,8.15217391 C16.4360119,5.45543478 18.6482991,3.26086957 21.3668155,3.26086957 L24.6540179,3.26086957 C27.3725342,3.26086957 29.5848214,5.45543478 29.5848214,8.15217391 L29.5848214,13.0777174 C29.5848214,16.676087 26.6362009,19.5994565 23.0104167,19.5994565 C19.3846324,19.5994565 16.4360119,16.676087 16.4360119,13.0777174 L16.4360119,8.15217391 Z M23.0104167,22.8603261 C28.449093,22.8603261 32.8720238,18.4728261 32.8720238,13.0777174 L32.8720238,8.15217391 C32.8720238,3.65706522 29.1854263,0 24.6540179,0 L21.3668155,0 C16.835407,0 13.1488095,3.65706522 13.1488095,8.15217391 L13.1488095,13.0777174 C13.1488095,18.4728261 17.5717403,22.8603261 23.0104167,22.8603261 L23.0104167,22.8603261 Z" id="Fill-1" fill="#4A4A4A"></path>
                <g id="Group-5" transform="translate(0.000000, 22.826087)" fill="#43484D">
                    <path d="M3.3370035,15.172337 C3.85145067,9.01907609 8.33848192,4.42777174 15.0608108,3.32233696 C15.7133205,3.2261413 16.3165221,3.52777174 16.6156575,4.11146739 C17.9880645,6.78048913 20.3203346,8.30983696 23.0109097,8.30983696 C25.6998413,8.30983696 28.0321114,6.78048913 29.4045184,4.11146739 C29.7052974,3.52940217 30.316717,3.22777174 30.9610087,3.32233696 C37.681694,4.42777174 42.1687252,9.01907609 42.6831724,15.172337 C29.8877371,18.8408152 16.1324388,18.8408152 3.3370035,15.172337 M31.4968227,0.107119565 C29.422598,-0.238532609 27.4174045,0.800054348 26.4772647,2.62777174 C25.9085786,3.73157609 24.8468123,5.04896739 23.0109097,5.04896739 C21.1750072,5.04896739 20.1115972,3.73157609 19.5429112,2.62777174 C18.6027714,0.800054348 16.6025087,-0.238532609 14.5249968,0.107119565 C5.83692091,1.53375 0.000493080357,8.07016304 0.000493080357,16.372337 L0.000493080357,17.5772283 L1.15923192,17.9310326 C8.24479665,20.0978804 15.5966248,21.195163 23.0109097,21.195163 C30.4235511,21.195163 37.7753792,20.0978804 44.8625876,17.9310326 L46.0213264,17.5772283 L46.0213264,16.372337 C46.0213264,8.07016304 40.1848986,1.53375 31.4968227,0.107119565" id="Fill-3"></path>
                </g>
            </g>
        </g>
    </g>
</svg>