<?xml version="1.0" encoding="UTF-8"?>
<svg width="20px" height="20px" viewBox="0 0 20 20" version="1.1" xmlns="http://www.w3.org/2000/svg" xmlns:xlink="http://www.w3.org/1999/xlink">
    <!-- Generator: sketchtool 56.3 (101010) - https://sketch.com -->
    <title>2C2B1DEE-BC47-4135-8024-1FAF8F9D756B</title>
    <desc>Created with sketchtool.</desc>
    <g id="Page-1" stroke="none" stroke-width="1" fill="none" fill-rule="evenodd">
        <g id="versión-5" transform="translate(-885.000000, -436.000000)" fill="#8493A8">
            <g id="Group-14" transform="translate(258.000000, 312.000000)">
                <g id="Group-2" transform="translate(247.000000, 114.000000)">
                    <path d="M395.791183,23.9489949 L399.627453,27.8363162 C399.639115,27.8481404 399.648128,27.8614425 399.657802,27.874476 C399.869323,28.1002096 400,28.4046813 400,28.7405944 C400,29.4362034 399.443763,30 398.757778,30 C398.445798,30 398.161384,29.8825648 397.943237,29.689885 C397.913284,29.6734924 397.88479,29.6542782 397.859344,29.6290175 L397.496206,29.2628722 C397.354132,29.1168172 397.206094,28.9766742 397.170575,28.9467107 C397.148973,28.9307213 397.127237,28.9107008 397.10749,28.8906804 L394.048652,25.7896646 C393.90459,25.6456251 393.657948,25.6296356 393.494271,25.7496238 C392.096987,26.7540041 390.395939,27.3521982 388.558649,27.3521982 C383.838258,27.3521982 380,23.460846 380,18.6770397 C380,13.8914866 383.838258,10 388.558649,10 C393.275063,10 397.115442,13.8914866 397.115442,18.6770397 C397.115442,20.409814 396.606254,22.0221971 395.737905,23.3767333 C395.627373,23.5507363 395.647253,23.8029399 395.791183,23.9489949 Z M393.726503,22.6900537 C394.578424,21.5708591 395.093126,20.1717987 395.093126,18.6527383 C395.093126,14.9971678 392.158556,12.0232081 388.553391,12.0232081 C384.946238,12.0232081 382.011669,14.9991812 382.011669,18.6527383 C382.011669,22.3062953 384.946238,25.280255 388.553391,25.280255 C390.162662,25.280255 391.635907,24.6846846 392.775775,23.7033423 C393.126901,23.4015973 393.444384,23.0618658 393.726503,22.6900537 Z" id="Fill-2"></path>
                </g>
            </g>
        </g>
    </g>
</svg>