<?xml version="1.0" encoding="UTF-8"?>
<svg width="28px" height="28px" viewBox="0 0 28 28" version="1.1" xmlns="http://www.w3.org/2000/svg" xmlns:xlink="http://www.w3.org/1999/xlink">
    <!-- Generator: sketchtool 56.3 (101010) - https://sketch.com -->
    <title>EC7BB271-DF37-406C-AD10-35817257C2E3</title>
    <desc>Created with sketchtool.</desc>
    <defs>
        <path d="M1102.79118,62.9489949 L1106.62745,66.8363162 C1106.63912,66.8481404 1106.64813,66.8614425 1106.6578,66.874476 C1106.86932,67.1002096 1107,67.4046813 1107,67.7405944 C1107,68.4362034 1106.44376,69 1105.75778,69 C1105.4458,69 1105.16138,68.8825648 1104.94324,68.689885 C1104.91328,68.6734924 1104.88479,68.6542782 1104.85934,68.6290175 L1104.49621,68.2628722 C1104.35413,68.1168172 1104.20609,67.9766742 1104.17058,67.9467107 C1104.14897,67.9307213 1104.12724,67.9107008 1104.10749,67.8906804 L1101.04865,64.7896646 C1100.90459,64.6456251 1100.65795,64.6296356 1100.49427,64.7496238 C1099.09699,65.7540041 1097.39594,66.3521982 1095.55865,66.3521982 C1090.83826,66.3521982 1087,62.460846 1087,57.6770397 C1087,52.8914866 1090.83826,49 1095.55865,49 C1100.27506,49 1104.11544,52.8914866 1104.11544,57.6770397 C1104.11544,59.409814 1103.60625,61.0221971 1102.7379,62.3767333 C1102.62737,62.5507363 1102.64725,62.8029399 1102.79118,62.9489949 Z M1100.7265,61.6900537 C1101.57842,60.5708591 1102.09313,59.1717987 1102.09313,57.6527383 C1102.09313,53.9971678 1099.15856,51.0232081 1095.55339,51.0232081 C1091.94624,51.0232081 1089.01167,53.9991812 1089.01167,57.6527383 C1089.01167,61.3062953 1091.94624,64.280255 1095.55339,64.280255 C1097.16266,64.280255 1098.63591,63.6846846 1099.77577,62.7033423 C1100.1269,62.4015973 1100.44438,62.0618658 1100.7265,61.6900537 Z" id="path-1"></path>
        <filter x="-35.0%" y="-25.0%" width="170.0%" height="170.0%" filterUnits="objectBoundingBox" id="filter-2">
            <feOffset dx="0" dy="2" in="SourceAlpha" result="shadowOffsetOuter1"></feOffset>
            <feGaussianBlur stdDeviation="2" in="shadowOffsetOuter1" result="shadowBlurOuter1"></feGaussianBlur>
            <feColorMatrix values="0 0 0 0 0   0 0 0 0 0   0 0 0 0 0  0 0 0 0.24724104 0" type="matrix" in="shadowBlurOuter1"></feColorMatrix>
        </filter>
    </defs>
    <g id="Page-1" stroke="none" stroke-width="1" fill="none" fill-rule="evenodd">
        <g id="versión-5" transform="translate(-1083.000000, -47.000000)">
            <g id="Fill-2">
                <use fill="black" fill-opacity="1" filter="url(#filter-2)" xlink:href="#path-1"></use>
                <use fill="#FFFFFF" fill-rule="evenodd" xlink:href="#path-1"></use>
            </g>
        </g>
    </g>
</svg>