<?xml version="1.0" encoding="UTF-8"?>
<svg width="97px" height="96px" viewBox="0 0 97 96" version="1.1" xmlns="http://www.w3.org/2000/svg" xmlns:xlink="http://www.w3.org/1999/xlink">
    <!-- Generator: sketchtool 56.3 (101010) - https://sketch.com -->
    <title>668D3171-4548-4838-A20D-1AC27C65CAD1</title>
    <desc>Created with sketchtool.</desc>
    <g id="Page-1" stroke="none" stroke-width="1" fill="none" fill-rule="evenodd">
        <g id="versión-5" transform="translate(-672.000000, -3506.000000)" fill="#4A4A4A">
            <g id="Group-24" transform="translate(672.000000, 3505.000000)">
                <g id="Group-3" transform="translate(24.000000, 0.031200)">
                    <path d="M25.1172,3.9687 C13.4082,3.9687 3.8822,13.4937 3.8822,25.2017 C3.8822,36.9127 13.4082,46.4397 25.1172,46.4397 C36.8272,46.4397 46.3532,36.9127 46.3532,25.2017 C46.3532,13.4937 36.8272,3.9687 25.1172,3.9687 M25.1172,49.4397 C11.7542,49.4397 0.8822,38.5667 0.8822,25.2017 C0.8822,11.8397 11.7542,0.9687 25.1172,0.9687 C38.4812,0.9687 49.3532,11.8397 49.3532,25.2017 C49.3532,38.5667 38.4812,49.4397 25.1172,49.4397" id="Fill-1"></path>
                </g>
                <g id="Group-6" transform="translate(34.000000, 0.031200)">
                    <path d="M15.1172,3.9687 C8.8012,3.9687 3.4652,13.6927 3.4652,25.2017 C3.4652,36.7137 8.8012,46.4397 15.1172,46.4397 C21.4302,46.4397 26.7642,36.7137 26.7642,25.2017 C26.7642,13.6927 21.4302,3.9687 15.1172,3.9687 M15.1172,49.4397 C6.9012,49.4397 0.4652,38.7927 0.4652,25.2017 C0.4652,11.6137 6.9012,0.9687 15.1172,0.9687 C23.3312,0.9687 29.7642,11.6137 29.7642,25.2017 C29.7642,38.7927 23.3312,49.4397 15.1172,49.4397" id="Fill-4"></path>
                </g>
                <g id="Group-9" transform="translate(47.000000, 0.031200)">
                    <path d="M3.6172,4.0205 L3.6172,46.3875 C14.6292,45.6145 23.3532,36.4085 23.3532,25.2025 C23.3532,13.9995 14.6292,4.7935 3.6172,4.0205 M2.1172,49.4395 C1.2892,49.4395 0.6172,48.7685 0.6172,47.9395 L0.6172,2.4685 C0.6172,1.6405 1.2892,0.9685 2.1172,0.9685 C15.4812,0.9685 26.3532,11.8395 26.3532,25.2025 C26.3532,38.5665 15.4812,49.4395 2.1172,49.4395" id="Fill-7"></path>
                </g>
                <path d="M28.9228,31.748 L69.3108,31.748 C70.0028,29.618 70.3538,27.432 70.3538,25.233 C70.3538,23.037 70.0028,20.851 69.3108,18.72 L28.9248,18.72 C28.2328,20.851 27.8818,23.038 27.8818,25.233 C27.8818,27.43 28.2318,29.616 28.9228,31.748 M70.3728,34.748 L27.8598,34.748 C27.2348,34.748 26.6758,34.36 26.4548,33.776 C25.4108,31.001 24.8818,28.127 24.8818,25.233 C24.8818,22.341 25.4118,19.466 26.4578,16.691 C26.6778,16.106 27.2368,15.72 27.8608,15.72 L70.3728,15.72 C70.9968,15.72 71.5568,16.106 71.7768,16.69 C72.8228,19.465 73.3538,22.34 73.3538,25.233 C73.3538,28.13 72.8228,31.006 71.7768,33.778 C71.5558,34.362 70.9968,34.748 70.3728,34.748" id="Fill-10"></path>
                <path d="M19.1015,55.4384 L16.1015,55.4384 L16.1015,42.8294 C15.6635,40.3914 13.9315,37.8444 11.5215,37.8424 L9.4345,37.8564 L9.2235,34.8644 C9.3655,34.8514 9.4505,34.8454 9.5395,34.8424 L11.5225,34.8424 C15.6705,34.8454 18.4655,38.6764 19.0815,42.4604 L19.1015,42.7024 L19.1015,55.4384 Z" id="Fill-12"></path>
                <path d="M39.6474,85.6933 L36.6474,85.6933 L36.6474,74.7253 L35.9834,64.4353 L22.3364,50.7903 C21.0954,52.3743 20.6644,55.1663 22.0334,56.6163 L31.5294,66.0663 L28.1714,69.4413 L13.4864,54.7563 L8.2884,49.2643 L8.2884,36.0573 C7.8504,33.6203 6.1184,31.0723 3.7094,31.0713 L3.0314,31.0713 L3.2554,52.1063 L20.3424,80.7803 L22.5614,83.8053 L20.1434,85.5813 L17.8014,82.3783 L0.2654,52.9463 L0.0004,28.1753 L1.4264,28.0903 C1.5624,28.0803 1.6424,28.0743 1.7264,28.0723 L3.7094,28.0713 C7.8574,28.0723 10.6524,31.9043 11.2684,35.6893 L11.2884,35.9303 L11.2884,48.0693 L15.6364,52.6653 L18.2674,55.2963 C17.8834,52.7023 18.9154,49.8373 20.7434,48.1093 L22.4554,46.6693 L38.9044,63.1143 L39.6444,74.6303 L39.6474,85.6933 Z" id="Fill-14"></path>
                <polygon id="Fill-16" points="45.8476 96.0312 42.8476 96.0312 42.8476 86.8912 15.5326 86.8912 15.5326 96.0312 12.5326 96.0312 12.5326 83.8912 45.8476 83.8912"></polygon>
                <path d="M80.289,55.4384 L77.289,55.4384 L77.309,42.4604 C77.925,38.6764 80.72,34.8454 84.867,34.8424 L86.816,34.8424 C86.94,34.8454 87.025,34.8514 87.111,34.8594 L86.957,37.8564 L86.847,37.8474 L84.868,37.8424 C82.459,37.8444 80.726,40.3914 80.289,42.8294 L80.289,55.4384 Z" id="Fill-18"></path>
                <path d="M76.6445,85.956 L74.0605,84.431 L93.1345,52.109 L93.3595,31.072 L92.6815,31.071 C90.2715,31.072 88.5405,33.62 88.1035,36.058 L88.1035,49.265 L82.9335,54.727 L68.2185,69.441 L64.8615,66.066 L74.3895,56.583 C75.0235,55.91 75.3195,54.796 75.1675,53.559 C75.0435,52.546 74.6365,51.558 74.0465,50.798 L60.4085,64.435 L59.7405,74.821 L59.7435,84.943 L56.7435,84.943 L56.7435,74.726 L57.4865,63.114 L73.9455,46.657 L74.9995,47.569 C75.0725,47.631 75.5725,48.044 75.5725,48.044 C76.9955,49.382 77.9065,51.235 78.1455,53.194 C78.2345,53.916 78.2245,54.622 78.1235,55.294 L80.7835,52.636 L85.1035,48.069 L85.1235,35.69 C85.7385,31.904 88.5325,28.072 92.6815,28.071 L94.6305,28.071 C94.7485,28.074 94.8285,28.08 94.9075,28.086 L96.2955,28.202 L96.3745,29.604 L96.1265,52.943 L76.6445,85.956 Z" id="Fill-20"></path>
                <polygon id="Fill-22" points="83.8584 96.0312 80.8584 96.0312 80.8584 86.8912 53.5434 86.8912 53.5434 96.0312 50.5434 96.0312 50.5434 83.8912 83.8584 83.8912"></polygon>
            </g>
        </g>
    </g>
</svg>