<?xml version="1.0" encoding="UTF-8"?>
<svg width="63px" height="78px" viewBox="0 0 63 78" version="1.1" xmlns="http://www.w3.org/2000/svg" xmlns:xlink="http://www.w3.org/1999/xlink">
    <!-- Generator: Sketch 57.1 (83088) - https://sketch.com -->
    <title>certificado</title>
    <desc>Created with Sketch.</desc>
    <g id="Page-1" stroke="none" stroke-width="1" fill="none" fill-rule="evenodd">
        <g id="versión-5" transform="translate(-294.000000, -3272.000000)" fill="#4A4A4A">
            <g id="certificado" transform="translate(294.000000, 3272.000000)">
                <path d="M0,1.9997 L0,75.9997 C1.3527075e-16,77.1042695 0.8954305,77.9997 2,77.9997 L61,77.9997 C62.1045695,77.9997 63,77.1042695 63,75.9997 L63,15.4780141 C63,14.9684495 62.8054996,14.4781005 62.4562107,14.1070837 L49.7672293,0.62876956 C49.3892884,0.227318469 48.8623825,-0.0003 48.3110185,-0.0003 L2,-0.0003 C0.8954305,-0.0003 -1.3527075e-16,0.8951305 0,1.9997 Z M5,4.9997 L44,4.9997 L44,18.0007 C44,19.1052695 44.8954305,20.0007 46,20.0007 L58,20.0007 L58,20.0007 L58,72.9997 L5,72.9997 L5,4.9997 Z M49,7.3217 L56.472,14.9997 L49,14.9997 L49,7.3217 Z" id="Fill-1"></path>
                <g id="Group-11" transform="translate(14.000000, 17.000000)">
                    <path d="M32,42.0537 L32,49.2057 C32,52.5077 37,52.5127 37,49.2057 L37,42.0537 C37,38.7517 32,38.7467 32,42.0537" id="Fill-2"></path>
                    <path d="M27.4268,34.8975 C25.1268,34.8975 23.2568,33.0265 23.2568,30.7275 C23.2568,28.4285 25.1268,26.5575 27.4268,26.5575 C29.7258,26.5575 31.5958,28.4285 31.5958,30.7275 C31.5958,33.0265 29.7258,34.8975 27.4268,34.8975 M27.2978,21.5575 C22.2418,21.5575 17.9998,25.6705 17.9998,30.7275 C17.9998,50.5955 17.5418,50.3205 19.3868,51.3765 C20.1318,51.8015 21.1878,51.8345 21.9918,51.3615 L28.6788,47.4385 C29.8678,46.7385 30.2738,45.2065 29.5728,44.0155 C28.8738,42.8255 27.2158,42.4305 26.0268,43.1275 L22.9998,44.8355 L22.9998,38.8845 C24.9998,39.5275 25.7958,39.8975 27.2978,39.8975 C32.3548,39.8975 36.4678,35.7845 36.4678,30.7275 C36.4678,25.6705 32.3548,21.5575 27.2978,21.5575" id="Fill-4"></path>
                    <polygon id="Fill-6" points="0 5 24 5 24 0 0 0"></polygon>
                    <polygon id="Fill-8" points="0 17 34 17 34 12 0 12"></polygon>
                    <polygon id="Fill-9" points="0 28 13 28 13 23 0 23"></polygon>
                    <polygon id="Fill-10" points="0 40 13 40 13 35 0 35"></polygon>
                </g>
            </g>
        </g>
    </g>
</svg>