<?xml version="1.0" encoding="UTF-8"?>
<svg width="97px" height="97px" viewBox="0 0 97 97" version="1.1" xmlns="http://www.w3.org/2000/svg" xmlns:xlink="http://www.w3.org/1999/xlink">
    <!-- Generator: sketchtool 56.3 (101010) - https://sketch.com -->
    <title>760E95E6-8E5A-482B-875E-8A3D8C25DD9F</title>
    <desc>Created with sketchtool.</desc>
    <g id="Page-1" stroke="none" stroke-width="1" fill="none" fill-rule="evenodd">
        <g id="versión-5" transform="translate(-277.000000, -3253.000000)" fill="#4A4A4A">
            <g id="Group-22" transform="translate(277.000000, 3253.000000)">
                <path d="M20.030404,48.342399 C25.9387604,60.5019733 36.7307307,68.0247554 48.3361564,68.0247554 C59.9492653,68.0247554 70.7441168,60.5019733 76.6476713,48.342399 C70.7431564,36.1799436 59.948305,28.6542802 48.3361564,28.6542802 C36.7316911,28.6542802 25.9397208,36.1799436 20.030404,48.342399 M48.3361564,70.9059436 C35.407305,70.9059436 23.4494139,62.4938347 17.1290475,48.9522505 L16.8457307,48.342399 L17.1290475,47.7335079 C23.4503743,34.1880822 35.407305,25.7730921 48.3361564,25.7730921 C61.2726911,25.7730921 73.232503,34.1880822 79.5490277,47.7335079 L79.833305,48.342399 L79.5490277,48.9512901 C73.2334634,62.4938347 61.2736515,70.9059436 48.3361564,70.9059436" id="Fill-1"></path>
                <path d="M56.7336673,38.952799 C59.3123307,41.2615911 60.9373208,44.6143337 60.9373208,48.3387495 C60.9373208,52.0650861 59.3113703,55.4187891 56.7317465,57.7266208 C59.3776376,57.2723535 61.9361327,56.6029574 64.3438455,55.7309178 C65.4223703,53.4048386 65.9678752,50.9202941 65.9678752,48.3387495 C65.9678752,45.7562446 65.4223703,43.2745812 64.3448059,40.9523436 C61.9390139,40.0783832 59.3805188,39.4080267 56.7336673,38.952799 M32.3348059,55.7309178 C34.7415584,56.6029574 37.3010139,57.2723535 39.9459446,57.7275812 C37.3663208,55.4187891 35.7413307,52.0650861 35.7413307,48.3387495 C35.7413307,44.6143337 37.3653604,41.2615911 39.9430634,38.952799 C37.2971723,39.4080267 34.7386772,40.0783832 32.3328851,40.953304 C31.2562812,43.2745812 30.7098158,45.7562446 30.7098158,48.3387495 C30.7098158,50.9202941 31.2562812,53.4048386 32.3348059,55.7309178 M48.3369248,38.6214624 C42.980796,38.6214624 38.6225188,42.9807 38.6225188,48.3387495 C38.6225188,53.6977594 42.980796,58.056997 48.3369248,58.056997 C53.6959347,58.056997 58.0561327,53.6977594 58.0561327,48.3387495 C58.0561327,42.9807 53.6959347,38.6214624 48.3369248,38.6214624 M48.3369248,61.3194624 C42.1942317,61.3194624 36.1235683,60.2495812 30.7799248,58.2269871 L30.2545881,58.0291455 L30.002004,57.525898 C28.5604495,54.6514327 27.8286277,51.5599178 27.8286277,48.3387495 C27.8286277,45.1166208 28.5594891,42.0279871 30.0000832,39.1573634 L30.2526673,38.6560366 L30.7770436,38.4572347 C36.1168455,36.4317594 42.1884693,35.3599574 48.3369248,35.3599574 C54.4844198,35.3599574 60.5579644,36.430799 65.9006475,38.4562743 L66.4250238,38.6550762 L66.6776079,39.156403 C68.118202,42.0270267 68.8490634,45.1166208 68.8490634,48.3387495 C68.8490634,51.5599178 68.118202,54.6514327 66.6766475,57.525898 L66.4240634,58.0291455 L65.8987267,58.2269871 C60.5531624,60.2495812 54.4796178,61.3194624 48.3369248,61.3194624" id="Fill-3"></path>
                <path d="M20.3783554,48.3443198 C26.3779495,54.5974584 36.9413455,58.4380822 48.3354842,58.4380822 C59.7382663,58.4380822 70.3045436,54.5974584 76.3012564,48.3443198 C70.3045436,42.0854188 59.7382663,38.2409535 48.3354842,38.2409535 C36.9413455,38.2409535 26.3779495,42.0854188 20.3783554,48.3443198 M48.3354842,61.3192703 C35.565098,61.3192703 23.6878802,56.7064881 17.3396624,49.2807059 L16.5406129,48.3443198 L17.3396624,47.4088941 C23.6869198,39.9773495 35.565098,35.3597653 48.3354842,35.3597653 C61.1164347,35.3597653 72.9955733,39.9773495 79.3389891,47.4088941 L80.1380386,48.3443198 L79.3389891,49.2797455 C72.9955733,56.7064881 61.1154743,61.3192703 48.3354842,61.3192703" id="Fill-5"></path>
                <path d="M48.3357723,38.6221347 C42.9796436,38.6221347 38.6213663,42.9813723 38.6213663,48.3384614 C38.6213663,53.6974713 42.9796436,58.0567089 48.3357723,58.0567089 C53.6957426,58.0567089 58.0559406,53.6974713 58.0559406,48.3384614 C58.0559406,42.9813723 53.6957426,38.6221347 48.3357723,38.6221347 M48.3357723,60.937897 C41.3911485,60.937897 35.7401782,55.2859663 35.7401782,48.3384614 C35.7401782,41.3919168 41.3911485,35.7409465 48.3357723,35.7409465 C55.2842376,35.7409465 60.9371287,41.3919168 60.9371287,48.3384614 C60.9371287,55.2859663 55.2842376,60.937897 48.3357723,60.937897" id="Fill-7"></path>
                <polygon id="Fill-9" points="46.1595149 9.96410891 49.040703 9.96410891 49.040703 0 46.1595149 0"></polygon>
                <polygon id="Fill-11" points="27.2633386 16.1954465 22.2817644 7.56916931 24.7768733 6.12857525 29.7584475 14.7548525"></polygon>
                <polygon id="Fill-12" points="14.0147713 31.0402881 5.38657327 26.0587139 6.82716733 23.5626446 15.4553653 28.5442188"></polygon>
                <polygon id="Fill-13" points="0 50.5187525 9.96314851 50.5187525 9.96314851 47.6375644 0 47.6375644"></polygon>
                <polygon id="Fill-14" points="7.56590396 74.3960228 6.1253099 71.8999535 14.7535079 66.9193396 16.194102 69.4144485"></polygon>
                <polygon id="Fill-15" points="26.0553525 91.2919822 23.5602436 89.8513881 28.5427782 81.2251109 31.0369267 82.665705"></polygon>
                <polygon id="Fill-16" points="50.5173119 96.6792277 47.6361238 96.6792277 47.6370842 86.7160792 50.5182723 86.7160792"></polygon>
                <polygon id="Fill-17" points="71.8992812 90.5529574 66.9186673 81.9247594 69.4137762 80.4841653 74.3943901 89.1123634"></polygon>
                <polygon id="Fill-18" points="89.8504277 73.1176396 81.2222297 68.1341446 82.6628238 65.6390356 91.2910218 70.6225307"></polygon>
                <polygon id="Fill-19" points="96.6782673 49.0420475 86.7141584 49.0401267 86.7141584 46.1589386 96.6782673 46.1608594"></polygon>
                <polygon id="Fill-20" points="81.9234149 29.7576792 80.4828208 27.2625703 89.1110188 22.280996 90.5516129 24.7770653"></polygon>
                <polygon id="Fill-21" points="68.1336644 15.4563257 65.6385554 14.0157317 70.6220505 5.38753366 73.116199 6.82812772"></polygon>
            </g>
        </g>
    </g>
</svg>