<?xml version="1.0" encoding="UTF-8"?>
<svg width="100px" height="97px" viewBox="0 0 100 97" version="1.1" xmlns="http://www.w3.org/2000/svg" xmlns:xlink="http://www.w3.org/1999/xlink">
    <!-- Generator: sketchtool 56.3 (101010) - https://sketch.com -->
    <title>797F3DF3-9C12-4E5E-92D5-494C375DD1B8</title>
    <desc>Created with sketchtool.</desc>
    <g id="Page-1" stroke="none" stroke-width="1" fill="none" fill-rule="evenodd">
        <g id="versión-5" transform="translate(-1065.000000, -3253.000000)" fill="#4A4A4A">
            <g id="Group-9" transform="translate(1065.000000, 3253.000000)">
                <polygon id="Fill-1" points="55.1661089 23.3686446 58.047297 23.3686446 58.047297 0.959723762 55.1661089 0.959723762"></polygon>
                <polygon id="Fill-2" points="83.2711386 17.2458317 69.0428713 17.2458317 69.0428713 14.3646436 78.8389109 14.3646436 77.0564158 10.3559505 78.8379505 6.34821782 69.0428713 6.34821782 69.0428713 3.4670297 83.272099 3.4670297 80.209396 10.3559505"></polygon>
                <path d="M57.2415248,13.128902 L68.1996436,13.128902 L68.1996436,5.10959505 L57.2415248,5.10959505 L57.2415248,13.128902 Z M54.361297,16.0100901 L71.0817921,16.0100901 L71.0817921,2.22840693 L54.361297,2.22840693 L54.361297,16.0100901 Z" id="Fill-3"></path>
                <polygon id="Fill-4" points="34.8162772 57.1613317 37.3488416 58.5366188 56.6460792 22.9981238 95.0062178 93.3855495 56.6441584 93.3855495 56.6441584 96.2667376 99.8581386 96.2667376 56.6422376 16.967797"></polygon>
                <polygon id="Fill-5" points="0 96.2665455 39.2033663 96.2665455 39.2033663 93.3853574 4.75492079 93.3853574 28.5669802 47.8020802 46.4284257 81.9960208 48.9811584 80.6620307 28.5669802 41.5787139"></polygon>
                <path d="M36.6115455,96.2665455 L83.647902,96.2665455 L60.1316446,59.8147139 L36.6115455,96.2665455 Z M60.1316446,65.1305059 L78.3599614,93.3853574 L41.8985257,93.3853574 L60.1316446,65.1305059 Z" id="Fill-6"></path>
                <path d="M50.6392822,39.2926832 L55.5257772,45.9559109 L60.3450446,39.8228218 L67.7093614,43.3013762 L56.6436782,22.9928416 L46.6574802,41.317198 C48.3381733,40.4739703 49.5261832,39.8650792 49.5453911,39.8545149 L50.6392822,39.2926832 Z M55.4470248,50.7204356 L49.7672426,42.975802 C48.461104,43.6375149 46.164797,44.7947921 43.8425594,45.9184554 L39.8012129,47.8757426 L56.6436782,16.9721188 L74.4667079,49.6784059 L61.1911535,43.4089406 L55.4470248,50.7204356 Z" id="Fill-7"></path>
            </g>
        </g>
    </g>
</svg>