<?xml version="1.0" encoding="utf-8"?>
<!-- Generator: Adobe Illustrator 22.0.1, SVG Export Plug-In . SVG Version: 6.00 Build 0)  -->
<svg version="1.1" id="Layer_1" xmlns="http://www.w3.org/2000/svg" xmlns:xlink="http://www.w3.org/1999/xlink" x="143px" y="40px"
	 viewBox="0 0 143 40" style="enable-background:new 0 0 143 40;" xml:space="preserve">
<style type="text/css">
	.st0{fill:#FFFFFF;}
</style>
<path id="Fill-19" class="st0" d="M1.8,33.6v3.8c0,0.7,0.3,0.9,0.8,0.9c0.5,0,0.8-0.3,0.8-0.8v-3.8h1.5v4c0,1.2-0.9,1.9-2.3,1.9
	c-1.5,0-2.3-0.6-2.3-2v-3.9H1.8z"/>
<path id="Fill-20" class="st0" d="M5.7,39.3v-3.5l-0.1-0.9h1.2l0.1,0.5c0.3-0.4,0.7-0.6,1.3-0.6c0.8,0,1.4,0.5,1.4,1.5v3H8.1v-2.8
	c0-0.4,0-0.7-0.4-0.7c-0.4,0-0.6,0.3-0.6,0.6v2.8H5.7z"/>
<path id="Fill-21" class="st0" d="M12.2,38c0.3,0.2,0.9,0.5,1.3,0.5c0.3,0,0.4-0.1,0.4-0.3c0-0.3-0.3-0.3-0.6-0.4
	c-0.7-0.2-1.4-0.5-1.4-1.4c0-1,0.8-1.5,1.7-1.5c0.7,0,1.3,0.3,1.7,0.7l-0.7,0.8c-0.4-0.3-0.7-0.5-1-0.5c-0.2,0-0.4,0.1-0.4,0.3
	c0,0.3,0.2,0.4,0.6,0.5c0.6,0.2,1.4,0.5,1.4,1.4c0,1-0.7,1.5-1.8,1.5c-0.8,0-1.5-0.3-1.7-0.5L12.2,38z"/>
<path id="Fill-22" class="st0" d="M17.9,35.8c-0.4,0-0.7,0.4-0.7,1c0.5,0,1.1-0.2,1.1-0.7C18.2,35.9,18.1,35.8,17.9,35.8 M19.5,36.1
	c0,1.3-1.4,1.5-2.3,1.6c0,0.4,0.3,0.7,0.9,0.7c0.4,0,0.8-0.2,1.1-0.4l0.4,1c0,0-0.7,0.5-1.7,0.5c-1.5,0-2.1-0.9-2.1-2.2
	c0-1.3,0.7-2.5,2.2-2.5C18.8,34.8,19.5,35.2,19.5,36.1"/>
<path id="Fill-23" class="st0" d="M21.5,39.3H20v-3.6l-0.1-0.8h1.2l0.1,0.6c0.2-0.5,0.7-0.7,1-0.7c0.2,0,0.5,0.1,0.7,0.2l-0.2,1.2
	C22.6,36,22.3,36,22.1,36c-0.4,0-0.6,0.2-0.6,0.6V39.3z"/>
<path id="Fill-24" class="st0" d="M26.9,34.9c0.2,0.6,0.3,1.4,0.3,2c0,1.7-0.8,2.6-2.2,2.6c-1.1,0-1.7-0.5-1.7-1.6v-3h1.5v2.8
	c0,0.4,0,0.6,0.4,0.6c0.5,0,0.6-0.7,0.6-1.4c0-0.7-0.1-1.4-0.3-2H26.9z"/>
<path id="Fill-25" class="st0" d="M28,39.3h1.5v-4.4H28V39.3z M28.7,32.9c0.5,0,0.8,0.3,0.8,0.7c0,0.4-0.3,0.7-0.8,0.7
	c-0.5,0-0.8-0.3-0.8-0.7C27.9,33.2,28.2,32.9,28.7,32.9L28.7,32.9z"/>
<path id="Fill-26" class="st0" d="M33.3,38l0.5,1c-0.4,0.3-0.9,0.5-1.6,0.5c-1.3,0-2.1-0.8-2.1-2.3c0-1.7,1.1-2.4,2.1-2.4
	c0.6,0,1.3,0.2,1.7,0.9L33,36.4c-0.2-0.3-0.4-0.5-0.8-0.5c-0.5,0-0.7,0.4-0.7,1.2c0,0.8,0.3,1.2,0.9,1.2
	C32.6,38.3,32.9,38.2,33.3,38"/>
<path id="Fill-27" class="st0" d="M34.3,39.3h1.5v-4.4h-1.5V39.3z M35,32.9c0.5,0,0.8,0.3,0.8,0.7c0,0.4-0.3,0.7-0.8,0.7
	c-0.5,0-0.8-0.3-0.8-0.7C34.2,33.2,34.5,32.9,35,32.9L35,32.9z"/>
<path id="Fill-28" class="st0" d="M39,37.1c0-0.9-0.1-1.3-0.6-1.3c-0.4,0-0.6,0.5-0.6,1.2c0,0.7,0.1,1.4,0.6,1.4
	C38.8,38.4,39,38,39,37.1 M38.5,34.8c0.7,0,2,0.2,2,2.2c0,1.6-1,2.5-2.1,2.5c-1.2,0-2-0.7-2-2.3C36.3,35.3,37.5,34.8,38.5,34.8"/>
<path id="Fill-29" class="st0" d="M45.2,35.9c-0.1,0-0.2-0.1-0.3-0.1c-0.7,0-0.8,0.8-0.8,1.4c0,0.7,0.1,1.2,0.6,1.2
	c0.3,0,0.5-0.3,0.5-0.5V35.9z M45.2,34.8v-1.5h1.4v5.1l0.1,0.9h-1.2l-0.1-0.4h-0.1c-0.2,0.4-0.6,0.5-1.1,0.5c-1.5,0-1.7-1.1-1.7-2.1
	c0-1.5,0.8-2.6,2.2-2.6C45,34.8,45.1,34.8,45.2,34.8L45.2,34.8z"/>
<path id="Fill-30" class="st0" d="M49.4,35.8c-0.4,0-0.7,0.4-0.7,1c0.5,0,1.1-0.2,1.1-0.7C49.8,35.9,49.6,35.8,49.4,35.8 M51,36.1
	c0,1.3-1.4,1.5-2.3,1.6c0,0.4,0.3,0.7,0.9,0.7c0.4,0,0.8-0.2,1.1-0.4l0.4,1c0,0-0.7,0.5-1.7,0.5c-1.5,0-2.1-0.9-2.1-2.2
	c0-1.3,0.7-2.5,2.2-2.5C50.4,34.8,51,35.2,51,36.1"/>
<path id="Fill-31" class="st0" d="M55.2,36.3c0.6,0,0.9-0.2,0.9-0.8c0-0.6-0.3-0.8-0.9-0.8h-0.4v1.5H55.2z M54.8,39.3h-1.5v-5.8h2.1
	c1.4,0,2.2,0.6,2.2,1.8c0,1.3-1,2-2.4,2h-0.4V39.3z"/>
<path id="Fill-32" class="st0" d="M60.4,36c0.4,0,0.7-0.2,0.7-0.7c0-0.5-0.3-0.6-0.8-0.6h-0.5V36H60.4z M59.8,39.3h-1.5v-5.8h2.1
	c1.3,0,2.2,0.4,2.2,1.6c0,0.7-0.4,1.2-0.9,1.5c0.2,0.1,0.3,0.2,0.4,0.4l1,2.2h-1.6l-0.8-1.8c-0.1-0.2-0.2-0.3-0.5-0.3h-0.4V39.3z"/>
<path id="Fill-33" class="st0" d="M65.8,38.2c0.8,0,1-0.8,1-1.7c0-0.7-0.2-1.8-1.1-1.8c-0.8,0-1.1,0.8-1.1,1.7
	C64.7,37.2,64.9,38.2,65.8,38.2 M65.7,39.4c-1.6,0-2.6-1-2.6-3c0-2.2,1.4-3,2.7-3c1.3,0,2.5,0.8,2.5,3
	C68.4,38.4,67.3,39.4,65.7,39.4"/>
<polygon id="Fill-34" class="st0" points="73.2,33.6 74.7,33.6 75,39.3 73.6,39.3 73.4,36.3 73.4,36.3 72.5,38.8 71.4,38.8 
	70.5,36.4 70.5,36.4 70.3,39.3 68.9,39.3 69.2,33.6 70.8,33.6 72,36.9 72,36.9 "/>
<path id="Fill-35" class="st0" d="M77.7,36.3c0.6,0,0.9-0.2,0.9-0.8c0-0.6-0.3-0.8-0.9-0.8h-0.4v1.5H77.7z M77.3,39.3h-1.5v-5.8H78
	c1.4,0,2.2,0.6,2.2,1.8c0,1.3-1,2-2.4,2h-0.4V39.3z"/>
<polygon id="Fill-36" class="st0" points="80.8,33.6 84.6,33.6 84.6,34.9 82.3,34.9 82.3,35.8 84.3,35.8 84.3,37.1 82.3,37.1 
	82.3,38 84.6,38 84.6,39.3 80.8,39.3 "/>
<path id="Fill-37" class="st0" d="M87.4,36c0.4,0,0.7-0.2,0.7-0.7c0-0.5-0.3-0.6-0.8-0.6h-0.5V36H87.4z M86.9,39.3h-1.5v-5.8h2.1
	c1.3,0,2.2,0.4,2.2,1.6c0,0.7-0.4,1.2-0.9,1.5c0.2,0.1,0.3,0.2,0.4,0.4l1,2.2h-1.6l-0.8-1.8c-0.1-0.2-0.2-0.3-0.5-0.3h-0.4V39.3z"/>
<path id="Fill-38" class="st0" d="M93.3,31.4c0.3,0.2,0.6,0.4,0.6,0.7c0,0.2-0.1,0.4-0.4,0.5c-0.4,0.2-1,0.5-1.4,0.6l-0.3-0.4
	L93.3,31.4z M91.9,33.6v3.8c0,0.7,0.3,0.9,0.8,0.9c0.4,0,0.8-0.3,0.8-0.8v-3.8H95v4c0,1.2-0.9,1.9-2.3,1.9c-1.5,0-2.3-0.6-2.3-2
	v-3.9H91.9z"/>
<path id="Fill-1" class="st0" d="M9.6,9.9C9.1,9.7,8.3,9.5,7.3,9.5c-2.8,0-3.8,2.7-3.8,5.9c0,2.5,0.6,4.9,3.1,4.9
	c1.9,0,2.9-1.3,2.9-2.6V9.9z M13.1,19.5l0.3,2.9h-3.1l-0.2-1.6l-0.1,0c-0.9,1.4-2.5,2-4.1,2c-4.2,0-5.9-3-5.9-7.3
	c0-5.3,2.6-8.6,7.8-8.6c1,0,3.2,0.2,5.3,1.1V19.5z"/>
<path id="Fill-4" class="st0" d="M29.3,7.3v12.6l0.2,2.5h-3.1l-0.2-1.8h-0.1c-1,1.5-2.6,2.2-4.3,2.2c-3.3,0-5-1.7-5-5.3V7.3h3.6v9.6
	c0,1.8,0.3,3.2,2.3,3.2c1.6,0,3-1.4,3-2.9V7.3H29.3z"/>
<path id="Fill-6" class="st0" d="M36.7,1.6v15.9c0,1.9,0.4,2.5,1.6,2.5c0.6,0,1.3-0.2,1.9-0.5l0.8,2.4c-0.8,0.5-2.3,0.9-3.6,0.9
	c-4,0-4.3-2.4-4.3-4.6V1.6H36.7z"/>
<path id="Fill-8" class="st0" d="M51.3,9.9C50.8,9.7,50,9.5,49,9.5c-2.9,0-3.8,2.7-3.8,5.9c0,2.5,0.6,4.9,3.1,4.9
	c1.9,0,2.9-1.3,2.9-2.6V9.9z M54.8,19.5l0.3,2.9H52l-0.2-1.6l-0.1,0c-0.9,1.4-2.5,2-4.1,2c-4.2,0-5.9-3-5.9-7.3
	c0-5.3,2.6-8.6,7.8-8.6c1,0,3.2,0.2,5.3,1.1V19.5z"/>
<path id="Fill-10" class="st0" d="M70,7.3c0.5,1.9,1,4.3,1,6.6c0,5.5-2.4,8.9-7.2,8.9c-3.5,0-5.3-1.6-5.3-5.3V7.3h3.6v9.5
	c0,1.8,0.1,3.3,2,3.3c2.5,0,3.3-3,3.3-5.9c0-2.5-0.5-4.9-1-6.8H70z"/>
<path id="Fill-12" class="st0" d="M74.2,22.4h3.6V7.3h-3.6V22.4z M76,1c1.2,0,2.1,0.9,2.1,2c0,1.1-0.9,2-2.1,2c-1.3,0-2.1-0.8-2.1-2
	C73.9,1.9,74.8,1,76,1L76,1z"/>
<path id="Fill-14" class="st0" d="M85.1,22.4h-3.6V9.8l-0.3-2.4h2.9l0.4,2.2c0.7-1.7,2.1-2.6,3.6-2.6c0.9,0,1.7,0.2,2.4,0.6l-0.6,3
	c-0.7-0.4-1.3-0.6-2.1-0.6c-1.6,0-2.7,1.3-2.7,3V22.4z"/>
<path id="Fill-15" class="st0" d="M96,1.6v5.8h4.1v2.8H96v7.6c0,1.8,0.7,2.4,2,2.4c0.8,0,1.6-0.3,2-0.6l0.9,2.3
	c-0.9,0.6-2.4,1.1-3.8,1.1c-4.7,0-4.6-2.9-4.6-5V1.6H96z"/>
<path id="Fill-16" class="st0" d="M115.1,7.3v12.6l0.2,2.5h-3.1l-0.2-1.8h-0.1c-1,1.5-2.6,2.2-4.3,2.2c-3.3,0-5-1.7-5-5.3V7.3h3.6
	v9.6c0,1.8,0.3,3.2,2.3,3.2c1.6,0,3-1.4,3-2.9V7.3H115.1z"/>
<path id="Fill-17" class="st0" d="M127.7,9.9c-0.4-0.2-1.3-0.4-2.3-0.4c-2.8,0-3.8,2.7-3.8,5.9c0,2.5,0.6,4.9,3.1,4.9
	c1.9,0,2.9-1.3,2.9-2.6V9.9z M131.2,19.5l0.3,2.9h-3.1l-0.2-1.6l-0.1,0c-0.9,1.4-2.5,2-4.1,2c-4.2,0-5.9-3-5.9-7.3
	c0-5.3,2.6-8.6,7.8-8.6c1,0,3.2,0.2,5.3,1.1V19.5z"/>
<path id="Fill-18" class="st0" d="M138.5,1.6v15.9c0,1.9,0.4,2.5,1.6,2.5c0.6,0,1.3-0.2,1.9-0.5l0.8,2.4c-0.8,0.5-2.3,0.9-3.6,0.9
	c-4.1,0-4.3-2.4-4.3-4.6V1.6H138.5z"/>
</svg>
