<?xml version="1.0" encoding="UTF-8"?>
<svg width="27px" height="19px" viewBox="0 0 27 19" version="1.1" xmlns="http://www.w3.org/2000/svg" xmlns:xlink="http://www.w3.org/1999/xlink">
    <!-- Generator: Sketch 55.2 (78181) - https://sketchapp.com -->
    <title>yt_icon_mono_dark</title>
    <desc>Created with Sketch.</desc>
    <g id="Symbols" stroke="none" stroke-width="1" fill="none" fill-rule="evenodd">
        <g id="footer" transform="translate(-1323.000000, -356.000000)" fill="#FFFFFE">
            <g id="yt_icon_mono_dark" transform="translate(1323.000000, 356.000000)">
                <path d="M10.7386364,13.5097661 L10.7386364,5.49023387 L17.7954545,9.50015323 L10.7386364,13.5097661 Z M26.4357614,2.96691129 C26.1252614,1.79902419 25.2103295,0.879362903 24.0487159,0.567241935 C21.9431761,0 13.5,0 13.5,0 C13.5,0 5.05682386,0 2.95128409,0.567241935 C1.78967045,0.879362903 0.874738636,1.79902419 0.564238636,2.96691129 C0,5.08357258 0,9.5 0,9.5 C0,9.5 0,13.9162742 0.564238636,16.0330887 C0.874738636,17.2009758 1.78967045,18.1206371 2.95128409,18.4329113 C5.05682386,19 13.5,19 13.5,19 C13.5,19 21.9431761,19 24.0487159,18.4329113 C25.2103295,18.1206371 26.1252614,17.2009758 26.4357614,16.0330887 C27,13.9162742 27,9.5 27,9.5 C27,9.5 27,5.08357258 26.4357614,2.96691129 L26.4357614,2.96691129 Z" id="Fill-1"></path>
            </g>
        </g>
    </g>
</svg>